<svg width="24" height="24" viewBox="0 0 24 24" fill="none" xmlns="http://www.w3.org/2000/svg">
<path d="M10.55 2.52954C10.9558 2.18756 11.4693 2 12 2C12.5307 2 13.0442 2.18756 13.45 2.52954L20.2 8.22453C20.708 8.65153 21 9.28054 21 9.94454V19.7465C21 20.2107 20.8156 20.6558 20.4874 20.984C20.1592 21.3122 19.7141 21.4965 19.25 21.4965H16.25C15.7859 21.4965 15.3408 21.3122 15.0126 20.984C14.6844 20.6558 14.5 20.2107 14.5 19.7465V14.7465C14.5 14.5476 14.421 14.3569 14.2803 14.2162C14.1397 14.0756 13.9489 13.9965 13.75 13.9965H10.25C10.0511 13.9965 9.86032 14.0756 9.71967 14.2162C9.57902 14.3569 9.5 14.5476 9.5 14.7465V19.7465C9.5 20.2107 9.31563 20.6558 8.98744 20.984C8.65925 21.3122 8.21413 21.4965 7.75 21.4965H4.75C4.52019 21.4965 4.29262 21.4513 4.0803 21.3633C3.86798 21.2754 3.67507 21.1465 3.51256 20.984C3.35006 20.8215 3.22116 20.6286 3.13321 20.4162C3.04527 20.2039 3 19.9763 3 19.7465V9.94353C3 9.28053 3.292 8.65154 3.8 8.22354L10.55 2.52954V2.52954Z" fill="#CCCCCC"/>
</svg>
