<svg width="16" height="16" viewBox="0 0 16 16" fill="none" xmlns="http://www.w3.org/2000/svg">
<path d="M1.77778 1.77778V14.2222H14.2222V1.77778H1.77778ZM1.77778 0H14.2222C14.6937 0 15.1459 0.187301 15.4793 0.520699C15.8127 0.854097 16 1.30628 16 1.77778V14.2222C16 14.6937 15.8127 15.1459 15.4793 15.4793C15.1459 15.8127 14.6937 16 14.2222 16H1.77778C1.30628 16 0.854097 15.8127 0.520699 15.4793C0.187301 15.1459 0 14.6937 0 14.2222V1.77778C0 1.30628 0.187301 0.854097 0.520699 0.520699C0.854097 0.187301 1.30628 0 1.77778 0ZM4.88889 6.22222C5.24251 6.22222 5.58165 6.08175 5.8317 5.8317C6.08175 5.58165 6.22222 5.24251 6.22222 4.88889C6.22222 4.53527 6.08175 4.19613 5.8317 3.94608C5.58165 3.69603 5.24251 3.55556 4.88889 3.55556C4.53527 3.55556 4.19613 3.69603 3.94608 3.94608C3.69603 4.19613 3.55556 4.53527 3.55556 4.88889C3.55556 5.24251 3.69603 5.58165 3.94608 5.8317C4.19613 6.08175 4.53527 6.22222 4.88889 6.22222ZM3.55556 9.77778L5.33333 8L7.11111 9.77778L9.77778 7.11111L12.4444 9.77778V12.4444H3.55556V9.77778Z" fill="black"/>
</svg>
