<svg width="16" height="13" viewBox="0 0 16 13" fill="none" xmlns="http://www.w3.org/2000/svg">
<path d="M15.1429 2.6277L12.8571 3.98864V1.18182C12.8571 0.529972 12.3446 0 11.7143 0H1.14286C0.5125 0 0 0.529972 0 1.18182V11.8182C0 12.47 0.5125 13 1.14286 13H11.7143C12.3446 13 12.8571 12.47 12.8571 11.8182V9.01136L15.1429 10.3723C15.5232 10.5994 16 10.3151 16 9.86264V3.1392C16 2.68494 15.5232 2.40057 15.1429 2.6277ZM4.71429 3.54545C4.71429 3.6267 4.65 3.69318 4.57143 3.69318H2.57143C2.49286 3.69318 2.42857 3.6267 2.42857 3.54545V2.65909C2.42857 2.57784 2.49286 2.51136 2.57143 2.51136H4.57143C4.65 2.51136 4.71429 2.57784 4.71429 2.65909V3.54545ZM14.7143 8.58665L12.8571 7.48239V5.51946L14.7143 4.41335V8.58665Z" fill="black"/>
</svg>
