<svg width="15" height="16" viewBox="0 0 15 16" fill="none" xmlns="http://www.w3.org/2000/svg">
<path d="M8.33065 14.4H2.49919C2.27825 14.4 2.06636 14.3157 1.91013 14.1657C1.7539 14.0157 1.66613 13.8122 1.66613 13.6V2.4C1.66613 2.18783 1.7539 1.98434 1.91013 1.83431C2.06636 1.68429 2.27825 1.6 2.49919 1.6H6.66452V4C6.66452 4.63652 6.92783 5.24697 7.39652 5.69706C7.86521 6.14714 8.50089 6.4 9.16371 6.4H11.6629V8C11.6629 8.21217 11.7507 8.41566 11.9069 8.56569C12.0631 8.71571 12.275 8.8 12.496 8.8C12.7169 8.8 12.9288 8.71571 13.085 8.56569C13.2413 8.41566 13.329 8.21217 13.329 8V5.552C13.3204 5.47851 13.3036 5.4061 13.2791 5.336V5.264C13.239 5.18174 13.1856 5.10613 13.1208 5.04L8.12238 0.24C8.05352 0.177773 7.97478 0.126465 7.88913 0.0879999C7.86426 0.0846081 7.83902 0.0846081 7.81415 0.0879999C7.72952 0.041393 7.63606 0.0114754 7.53924 0H2.49919C1.83637 0 1.20069 0.252856 0.731997 0.702944C0.263307 1.15303 0 1.76348 0 2.4V13.6C0 14.2365 0.263307 14.847 0.731997 15.2971C1.20069 15.7471 1.83637 16 2.49919 16H8.33065C8.55159 16 8.76349 15.9157 8.91972 15.7657C9.07595 15.6157 9.16371 15.4122 9.16371 15.2C9.16371 14.9878 9.07595 14.7843 8.91972 14.6343C8.76349 14.4843 8.55159 14.4 8.33065 14.4ZM8.33065 2.728L10.4883 4.8H9.16371C8.94277 4.8 8.73088 4.71571 8.57465 4.56569C8.41842 4.41566 8.33065 4.21217 8.33065 4V2.728ZM4.16532 4.8C3.94438 4.8 3.73249 4.88429 3.57626 5.03431C3.42003 5.18434 3.33226 5.38783 3.33226 5.6C3.33226 5.81217 3.42003 6.01566 3.57626 6.16569C3.73249 6.31571 3.94438 6.4 4.16532 6.4H4.99839C5.21933 6.4 5.43123 6.31571 5.58746 6.16569C5.74369 6.01566 5.83145 5.81217 5.83145 5.6C5.83145 5.38783 5.74369 5.18434 5.58746 5.03431C5.43123 4.88429 5.21933 4.8 4.99839 4.8H4.16532ZM9.16371 8H4.16532C3.94438 8 3.73249 8.08429 3.57626 8.23431C3.42003 8.38434 3.33226 8.58783 3.33226 8.8C3.33226 9.01217 3.42003 9.21566 3.57626 9.36569C3.73249 9.51571 3.94438 9.6 4.16532 9.6H9.16371C9.38466 9.6 9.59655 9.51571 9.75278 9.36569C9.90901 9.21566 9.99678 9.01217 9.99678 8.8C9.99678 8.58783 9.90901 8.38434 9.75278 8.23431C9.59655 8.08429 9.38466 8 9.16371 8ZM14.7536 12.232L13.0875 10.632C13.0082 10.5592 12.9148 10.5021 12.8125 10.464C12.6097 10.384 12.3822 10.384 12.1794 10.464C12.0772 10.5021 11.9837 10.5592 11.9045 10.632L10.2384 12.232C10.0815 12.3826 9.99337 12.587 9.99337 12.8C9.99337 13.013 10.0815 13.2174 10.2384 13.368C10.3952 13.5186 10.608 13.6033 10.8298 13.6033C11.0517 13.6033 11.2645 13.5186 11.4213 13.368L11.6629 13.128V15.2C11.6629 15.4122 11.7507 15.6157 11.9069 15.7657C12.0631 15.9157 12.275 16 12.496 16C12.7169 16 12.9288 15.9157 13.085 15.7657C13.2413 15.6157 13.329 15.4122 13.329 15.2V13.128L13.5706 13.368C13.6481 13.443 13.7402 13.5025 13.8417 13.5431C13.9432 13.5837 14.0521 13.6046 14.1621 13.6046C14.2721 13.6046 14.381 13.5837 14.4825 13.5431C14.584 13.5025 14.6761 13.443 14.7536 13.368C14.8317 13.2936 14.8936 13.2051 14.9359 13.1077C14.9782 13.0102 15 12.9056 15 12.8C15 12.6944 14.9782 12.5898 14.9359 12.4923C14.8936 12.3949 14.8317 12.3064 14.7536 12.232ZM7.49758 12.8C7.71853 12.8 7.93042 12.7157 8.08665 12.5657C8.24288 12.4157 8.33065 12.2122 8.33065 12C8.33065 11.7878 8.24288 11.5843 8.08665 11.4343C7.93042 11.2843 7.71853 11.2 7.49758 11.2H4.16532C3.94438 11.2 3.73249 11.2843 3.57626 11.4343C3.42003 11.5843 3.33226 11.7878 3.33226 12C3.33226 12.2122 3.42003 12.4157 3.57626 12.5657C3.73249 12.7157 3.94438 12.8 4.16532 12.8H7.49758Z" fill="black"/>
</svg>
