<svg width="20" height="20" viewBox="0 0 20 20" fill="none" xmlns="http://www.w3.org/2000/svg">
<path fill-rule="evenodd" clip-rule="evenodd" d="M10 20C15.5228 20 20 15.5228 20 10C20 4.47715 15.5228 0 10 0C4.47715 0 0 4.47715 0 10C0 15.5228 4.47715 20 10 20ZM14.115 5.614H15.688L14.999 8.981H16.156V10.736H14.648L13.777 15H11.528L10.722 10.736H9.422L8.629 15H6.38L5.509 10.736H3.988V8.981H5.145L4.456 5.614H6.042L6.731 8.981H8.239L8.902 5.627H11.255L11.918 8.981H13.426L14.115 5.614ZM7.901 10.736H7.082L7.498 12.79L7.901 10.736ZM10.072 7.278L9.76 8.981H10.397L10.072 7.278ZM13.075 10.736H12.256L12.659 12.79L13.075 10.736Z" fill="#FB7268"/>
</svg>
