<svg width="24" height="24" viewBox="0 0 24 24" fill="none" xmlns="http://www.w3.org/2000/svg">
<path d="M19.0936 4.93002C17.4528 3.27852 15.2872 2.25124 12.9702 2.02526C10.6532 1.79929 8.3299 2.3888 6.40094 3.69215C4.47198 4.99551 3.05819 6.93103 2.40332 9.16503C1.74845 11.399 1.89353 13.7915 2.81356 15.93C2.90945 16.1288 2.94091 16.3525 2.90356 16.57L2.02356 20.8C1.98965 20.9622 1.99658 21.1303 2.0437 21.2891C2.09083 21.4479 2.17669 21.5926 2.29356 21.71C2.38936 21.8051 2.50343 21.8799 2.62889 21.9297C2.75435 21.9795 2.8886 22.0035 3.02356 22H3.22356L7.50356 21.14C7.72109 21.1139 7.94168 21.1449 8.14356 21.23C10.2821 22.15 12.6745 22.2951 14.9085 21.6403C17.1425 20.9854 19.0781 19.5716 20.3814 17.6426C21.6848 15.7137 22.2743 13.3904 22.0483 11.0734C21.8223 8.75638 20.7951 6.59081 19.1436 4.95002L19.0936 4.93002ZM8.02356 13C7.82577 13 7.63243 12.9414 7.46799 12.8315C7.30354 12.7216 7.17536 12.5654 7.09968 12.3827C7.02399 12.2 7.00419 11.9989 7.04277 11.8049C7.08136 11.611 7.1766 11.4328 7.31645 11.2929C7.4563 11.1531 7.63448 11.0578 7.82847 11.0192C8.02245 10.9807 8.22351 11.0005 8.40624 11.0761C8.58897 11.1518 8.74514 11.28 8.85503 11.4445C8.96491 11.6089 9.02356 11.8022 9.02356 12C9.02356 12.2652 8.9182 12.5196 8.73066 12.7071C8.54313 12.8947 8.28877 13 8.02356 13ZM12.0236 13C11.8258 13 11.6324 12.9414 11.468 12.8315C11.3035 12.7216 11.1754 12.5654 11.0997 12.3827C11.024 12.2 11.0042 11.9989 11.0428 11.8049C11.0814 11.611 11.1766 11.4328 11.3164 11.2929C11.4563 11.1531 11.6345 11.0578 11.8285 11.0192C12.0224 10.9807 12.2235 11.0005 12.4062 11.0761C12.589 11.1518 12.7451 11.28 12.855 11.4445C12.9649 11.6089 13.0236 11.8022 13.0236 12C13.0236 12.2652 12.9182 12.5196 12.7307 12.7071C12.5431 12.8947 12.2888 13 12.0236 13ZM16.0236 13C15.8258 13 15.6324 12.9414 15.468 12.8315C15.3035 12.7216 15.1754 12.5654 15.0997 12.3827C15.024 12.2 15.0042 11.9989 15.0428 11.8049C15.0814 11.611 15.1766 11.4328 15.3164 11.2929C15.4563 11.1531 15.6345 11.0578 15.8285 11.0192C16.0224 10.9807 16.2235 11.0005 16.4062 11.0761C16.589 11.1518 16.7451 11.28 16.855 11.4445C16.9649 11.6089 17.0236 11.8022 17.0236 12C17.0236 12.2652 16.9182 12.5196 16.7307 12.7071C16.5431 12.8947 16.2888 13 16.0236 13Z" fill="#FB7268"/>
</svg>
