<svg width="20" height="20" viewBox="0 0 20 20" fill="none" xmlns="http://www.w3.org/2000/svg">
<circle cx="10" cy="10" r="9.25" stroke="black" stroke-width="1.5"/>
<path d="M10.3323 14.4C10.7643 14.368 11.2763 14.272 11.6923 14.08C12.2203 13.824 12.6683 13.536 13.0043 13.024C13.6123 12 13.3403 10.912 12.8443 10.32C12.5403 9.92 12.0443 9.568 10.5563 9.056L9.96431 8.832C9.72431 8.752 9.53231 8.672 9.34031 8.528C9.21231 8.448 9.11631 8.368 9.08431 8.272C9.03631 8.176 9.02031 8.048 9.11631 7.904C9.26031 7.744 9.48431 7.68 9.78831 7.68C10.2043 7.696 10.7643 7.808 11.2283 8.144L11.3723 8.272L13.1003 7.024C12.9243 6.8 12.7003 6.576 12.4603 6.384C11.5643 5.712 10.5083 5.552 9.80431 5.568C9.00431 5.6 7.78831 5.888 7.24431 6.928C6.78031 7.856 6.97231 8.96 7.46831 9.616C7.59631 9.776 7.85231 10.064 8.18831 10.304C8.49231 10.512 8.63631 10.592 9.14831 10.784L9.74031 11.008C10.8123 11.392 10.8923 11.392 11.1163 11.536C11.2923 11.648 11.3243 11.808 11.1803 11.968C11.1003 12.064 10.9883 12.128 10.8763 12.176C10.7003 12.24 10.5723 12.272 10.3483 12.288C9.78831 12.288 9.48431 12.176 8.90831 11.792C8.62031 11.584 8.47631 11.344 8.36431 11.136L6.58831 12.144C6.79631 12.512 7.21231 13.2 7.72431 13.584C8.54031 14.16 9.37231 14.416 10.3323 14.4Z" fill="#FB7268"/>
</svg>
