<svg width="140" height="140" viewBox="0 0 140 140" fill="none" xmlns="http://www.w3.org/2000/svg">
<rect width="140" height="140" fill="white"/>
<mask id="mask0_657_2934" style="mask-type:alpha" maskUnits="userSpaceOnUse" x="39" y="102" width="60" height="9">
<path d="M69 110.961C85.5685 110.961 99 109.17 99 106.961C99 104.752 85.5685 102.961 69 102.961C52.4315 102.961 39 104.752 39 106.961C39 109.17 52.4315 110.961 69 110.961Z" fill="url(#paint0_radial_657_2934)"/>
</mask>
<g mask="url(#mask0_657_2934)">
<g opacity="0.5" filter="url(#filter0_f_657_2934)">
<path d="M99.004 106.962C100.309 112.093 37.6945 112.093 39.0087 106.962C37.6992 101.83 100.313 101.83 99.004 106.962Z" fill="#FFC2C2"/>
</g>
</g>
<mask id="mask1_657_2934" style="mask-type:alpha" maskUnits="userSpaceOnUse" x="39" y="102" width="60" height="9">
<path d="M68.9928 110.961C85.0914 110.961 98.1419 109.17 98.1419 106.961C98.1419 104.752 85.0914 102.961 68.9928 102.961C52.8942 102.961 39.8438 104.752 39.8438 106.961C39.8438 109.17 52.8942 110.961 68.9928 110.961Z" fill="url(#paint1_radial_657_2934)"/>
</mask>
<g mask="url(#mask1_657_2934)">
<g opacity="0.59" filter="url(#filter1_f_657_2934)">
<path d="M98.1504 106.962C99.4126 112.093 38.5853 112.093 39.8475 106.962C38.59 101.83 99.4173 101.83 98.1504 106.962Z" fill="#563939"/>
</g>
</g>
<mask id="mask2_657_2934" style="mask-type:alpha" maskUnits="userSpaceOnUse" x="48" y="104" width="42" height="6">
<path d="M69.0061 109.748C80.5513 109.748 89.9106 108.499 89.9106 106.96C89.9106 105.42 80.5513 104.172 69.0061 104.172C57.4608 104.172 48.1016 105.42 48.1016 106.96C48.1016 108.499 57.4608 109.748 69.0061 109.748Z" fill="url(#paint2_radial_657_2934)"/>
</mask>
<g mask="url(#mask2_657_2934)">
<g opacity="0.8" filter="url(#filter2_f_657_2934)">
<path d="M89.9021 106.961C90.8145 110.537 47.1759 110.537 48.0883 106.961C47.1807 103.385 90.8192 103.385 89.9021 106.961Z" fill="#3F0E0E"/>
</g>
</g>
<path d="M108.617 57.5833C104.054 40.6264 88.6149 28.0973 70.2079 28.0006C52.0716 27.9039 36.7098 39.8917 31.7214 56.4038L34.786 59.5071C34.6216 60.1741 34.4863 60.8509 34.3606 61.5276C34.1093 62.8907 33.9449 64.2732 33.8482 65.6846C33.9353 64.2732 34.1093 62.8907 34.3606 61.5276C34.4863 60.8509 34.6313 60.1741 34.786 59.5071L31.7214 56.4038C30.629 60.0098 30.0296 63.8285 30.0006 67.7922C29.8846 89.8825 47.7018 107.883 69.7922 107.999C91.8825 108.115 109.883 90.2982 109.999 68.2079C110.019 64.5245 109.526 60.9669 108.617 57.5833ZM70.1789 33.6658C88.9339 33.7624 104.064 49.0468 103.967 67.8018C103.87 85.9865 89.5043 100.758 71.542 101.551C70.9716 101.58 70.4012 101.59 69.8308 101.59C69.2604 101.59 68.6901 101.571 68.1197 101.542C50.1574 100.546 35.9461 85.6288 36.0428 67.4441C36.1395 48.6891 51.4238 33.5691 70.1789 33.6658ZM34.4766 75.1202C34.2446 73.9407 34.0609 72.742 33.9449 71.5238C33.8289 70.3057 33.7709 69.0683 33.7806 67.8212C33.7709 69.0683 33.8289 70.3057 33.9449 71.5238C34.0609 72.7323 34.2349 73.9407 34.4766 75.1202C34.7087 76.2996 35.0083 77.4597 35.3467 78.6005C34.9987 77.4597 34.7087 76.2996 34.4766 75.1202ZM38.9237 86.6245C37.7249 84.6234 36.7098 82.5062 35.9074 80.2826C36.7098 82.5062 37.7249 84.6234 38.9237 86.6245C39.5231 87.6203 40.1708 88.587 40.8572 89.5248C40.1708 88.587 39.5231 87.6203 38.9237 86.6245ZM43.0614 92.2124C45.3913 94.7936 48.0789 97.0461 51.0565 98.8733C48.0789 97.0558 45.3816 94.8033 43.0614 92.2124ZM55.7259 101.3C56.8086 101.764 57.9107 102.18 59.0515 102.537C57.9107 102.18 56.8086 101.764 55.7259 101.3Z" fill="#FF9F9F"/>
<path d="M70.1862 30.6685C49.778 30.5621 33.1499 47.026 33.0435 67.4341C32.9372 87.2139 48.4052 103.446 67.9433 104.519C48.8596 103.455 33.7589 87.591 33.8556 68.2559C33.9619 48.3021 50.2227 32.2056 70.1765 32.312C90.1303 32.4183 106.227 48.6694 106.12 68.6232C106.024 87.9583 90.7587 103.658 71.6653 104.528C91.2131 103.658 106.846 87.591 106.952 67.8015C107.058 47.403 90.5944 30.7748 70.1862 30.6685Z" fill="#C64E47"/>
<path d="M106.123 68.6243C106.229 48.6705 90.1327 32.4194 70.1789 32.313C50.2251 32.2067 33.9643 48.3031 33.8676 68.2569C33.771 87.592 48.8717 103.447 67.9554 104.52C68.5741 104.559 69.1928 104.578 69.8116 104.578C70.4399 104.578 71.0587 104.568 71.6677 104.539C90.7611 103.669 106.026 87.9594 106.123 68.6243Z" fill="url(#paint3_linear_657_2934)"/>
<path d="M85.5862 90.5412C85.6538 90.3672 85.6828 90.1738 85.6442 89.9612L83.1886 75.1602C83.1209 75.3438 83.0919 75.5372 83.1306 75.7305L85.5862 90.5412Z" fill="#CC5D54"/>
<path d="M56.7333 75.0254L54.1231 89.7974C54.0844 90.0101 54.1134 90.2034 54.1714 90.3774L56.7816 75.6054C56.8203 75.4024 56.801 75.2091 56.7333 75.0254Z" fill="#CC5D54"/>
<path d="M46.1739 61.877L61.3616 59.7501C61.7387 59.7018 62.0577 59.4698 62.222 59.1314L69.0763 45.4132C69.5017 44.5624 70.7101 44.5721 71.1259 45.4229L77.8448 59.2088C78.0091 59.5471 78.3282 59.7791 78.7052 59.8372L93.8736 62.1187C94.2989 62.1864 94.5986 62.4571 94.7436 62.8051C95.0337 62.1574 94.6566 61.3356 93.8736 61.2099L78.7149 58.9381C78.3475 58.8801 78.0188 58.648 77.8545 58.3097L71.1355 44.5238C70.7198 43.673 69.5114 43.6634 69.086 44.5141L62.2317 58.2227C62.0674 58.561 61.7387 58.7931 61.3713 58.8414L46.1836 60.9683C45.4005 61.0746 45.0138 61.8963 45.2942 62.5537C45.4489 62.2154 45.7486 61.935 46.1739 61.877Z" fill="#FFD5CE"/>
<path d="M83.9868 91.1602L70.4522 83.9579C70.1235 83.7839 69.7175 83.7839 69.3888 83.9482L55.7769 91.0152C55.1195 91.3536 54.3944 90.9959 54.1817 90.3772L54.1237 90.7059C53.9594 91.6436 54.9358 92.359 55.7769 91.924L69.3888 84.857C69.7271 84.683 70.1235 84.683 70.4522 84.8667L83.9868 92.069C84.8278 92.5137 85.8043 91.808 85.6496 90.8702L85.5916 90.5415C85.3692 91.1506 84.6345 91.4986 83.9868 91.1602Z" fill="#CC5D54"/>
<path d="M83.279 74.1256C79.0543 75.363 74.5879 76.0301 69.9571 76.0011C65.3264 75.9721 60.8696 75.2663 56.6546 73.9902C56.7706 74.2126 56.8383 74.4543 56.7899 74.696L56.7319 75.0247C56.7996 75.2083 56.8189 75.4017 56.7899 75.595L54.1797 90.367C54.402 90.9761 55.1271 91.3435 55.7748 91.0051L69.3867 83.9381C69.7251 83.7641 70.1215 83.7641 70.4502 83.9478L83.9847 91.1501C84.6324 91.4981 85.3672 91.1404 85.5895 90.5314L83.1243 75.7304C83.0953 75.537 83.1146 75.334 83.1823 75.16L83.1243 74.8313C83.0953 74.58 83.163 74.3383 83.279 74.1256Z" fill="#FFBDB8"/>
<path d="M94.7524 62.8164C94.6944 62.9421 94.6171 63.0678 94.5107 63.1838L83.4704 73.8181C83.3834 73.9051 83.335 74.0114 83.277 74.1178C83.161 74.3401 83.0933 74.5721 83.132 74.8235L83.19 75.1522C83.248 74.9878 83.335 74.8428 83.4607 74.7171L84.4661 73.7407L94.4914 64.0635C94.8684 63.7252 94.9264 63.2224 94.7524 62.8164Z" fill="#CC5D54"/>
<path d="M56.6528 73.9895C56.5947 73.8832 56.5561 73.7672 56.4691 73.6898L45.5447 62.9299C45.4287 62.8235 45.3611 62.6978 45.3031 62.5625C45.129 62.9685 45.1677 63.4712 45.5351 63.8289L55.4636 73.6028L56.4594 74.5889C56.5851 74.7146 56.6721 74.8693 56.7301 75.024L56.7881 74.6953C56.8364 74.4439 56.7688 74.2022 56.6528 73.9895Z" fill="#CC5D54"/>
<path d="M94.5028 63.1718C94.6188 63.0655 94.6865 62.9398 94.7445 62.8044C94.5995 62.4661 94.2998 62.1857 93.8744 62.1181L78.706 59.8365C78.3387 59.7785 78.01 59.5465 77.8456 59.2081L71.1267 45.4222C70.711 44.5715 69.5025 44.5618 69.0772 45.4125L62.2325 59.1308C62.0682 59.4691 61.7395 59.7012 61.3721 59.7495L46.1844 61.8764C45.7591 61.9344 45.4497 62.2147 45.3047 62.5531C45.3627 62.6788 45.4304 62.8044 45.5464 62.9205L56.4707 73.6804C56.5577 73.7674 56.606 73.8738 56.6544 73.9801C60.8694 75.2562 65.3262 75.9716 69.9569 75.991C74.5877 76.0103 79.0541 75.3529 83.2788 74.1155C83.3368 74.0091 83.3851 73.9028 83.4721 73.8158L94.5028 63.1718Z" fill="#FFD5CE"/>
<defs>
<filter id="filter0_f_657_2934" x="33.9883" y="98.1133" width="70.0352" height="17.6973" filterUnits="userSpaceOnUse" color-interpolation-filters="sRGB">
<feFlood flood-opacity="0" result="BackgroundImageFix"/>
<feBlend mode="normal" in="SourceGraphic" in2="BackgroundImageFix" result="shape"/>
<feGaussianBlur stdDeviation="2.5" result="effect1_foregroundBlur_657_2934"/>
</filter>
<filter id="filter1_f_657_2934" x="24.8281" y="88.1133" width="88.3398" height="37.6973" filterUnits="userSpaceOnUse" color-interpolation-filters="sRGB">
<feFlood flood-opacity="0" result="BackgroundImageFix"/>
<feBlend mode="normal" in="SourceGraphic" in2="BackgroundImageFix" result="shape"/>
<feGaussianBlur stdDeviation="7.5" result="effect1_foregroundBlur_657_2934"/>
</filter>
<filter id="filter2_f_657_2934" x="43.0742" y="99.2793" width="51.8438" height="15.3633" filterUnits="userSpaceOnUse" color-interpolation-filters="sRGB">
<feFlood flood-opacity="0" result="BackgroundImageFix"/>
<feBlend mode="normal" in="SourceGraphic" in2="BackgroundImageFix" result="shape"/>
<feGaussianBlur stdDeviation="2.5" result="effect1_foregroundBlur_657_2934"/>
</filter>
<radialGradient id="paint0_radial_657_2934" cx="0" cy="0" r="1" gradientUnits="userSpaceOnUse" gradientTransform="translate(69.0009 106.973) scale(30.0004 4.00247)">
<stop stop-color="white"/>
<stop offset="0.1842" stop-color="#C1C1C1"/>
<stop offset="0.4055" stop-color="#7D7D7D"/>
<stop offset="0.6059" stop-color="#474747"/>
<stop offset="0.778" stop-color="#202020"/>
<stop offset="0.9151" stop-color="#090909"/>
<stop offset="1"/>
</radialGradient>
<radialGradient id="paint1_radial_657_2934" cx="0" cy="0" r="1" gradientUnits="userSpaceOnUse" gradientTransform="translate(68.9924 107.003) scale(29.1522 4.00343)">
<stop stop-color="white"/>
<stop offset="0.0448" stop-color="#E6E6E6"/>
<stop offset="0.1501" stop-color="#B1B1B1"/>
<stop offset="0.2596" stop-color="#818181"/>
<stop offset="0.371" stop-color="#5A5A5A"/>
<stop offset="0.4849" stop-color="#393939"/>
<stop offset="0.6019" stop-color="#202020"/>
<stop offset="0.7232" stop-color="#0E0E0E"/>
<stop offset="0.8519" stop-color="#030303"/>
<stop offset="1"/>
</radialGradient>
<radialGradient id="paint2_radial_657_2934" cx="0" cy="0" r="1" gradientUnits="userSpaceOnUse" gradientTransform="translate(69.0069 106.972) scale(20.907 2.78928)">
<stop stop-color="white"/>
<stop offset="0.0448" stop-color="#E6E6E6"/>
<stop offset="0.1501" stop-color="#B1B1B1"/>
<stop offset="0.2596" stop-color="#818181"/>
<stop offset="0.371" stop-color="#5A5A5A"/>
<stop offset="0.4849" stop-color="#393939"/>
<stop offset="0.6019" stop-color="#202020"/>
<stop offset="0.7232" stop-color="#0E0E0E"/>
<stop offset="0.8519" stop-color="#030303"/>
<stop offset="1"/>
</radialGradient>
<linearGradient id="paint3_linear_657_2934" x1="70.2575" y1="32.0197" x2="69.7397" y2="104.281" gradientUnits="userSpaceOnUse">
<stop stop-color="#FF9C9C"/>
<stop offset="0.2782" stop-color="#FE9493"/>
<stop offset="0.7393" stop-color="#FD8079"/>
<stop offset="1" stop-color="#FC7268"/>
</linearGradient>
</defs>
</svg>
