<svg width="12" height="12" viewBox="0 0 12 12" fill="none" xmlns="http://www.w3.org/2000/svg">
<path d="M2.30592 0.264138C2.11004 0.433317 2 0.662742 2 0.901961C2 1.14118 2.11004 1.37061 2.30592 1.53978L7.47795 6.00545L2.30592 10.4711C2.11559 10.6413 2.01027 10.8691 2.01266 11.1057C2.01504 11.3422 2.12492 11.5685 2.31865 11.7358C2.51237 11.903 2.77443 11.9979 3.04839 12C3.32235 12.002 3.58628 11.9111 3.78334 11.7468L9.69408 6.64327C9.88996 6.47409 10 6.24467 10 6.00545C10 5.76623 9.88996 5.5368 9.69408 5.36762L3.78334 0.264138C3.5874 0.0950107 3.32169 0 3.04463 0C2.76757 0 2.50186 0.0950107 2.30592 0.264138Z" fill="#CCCCCC"/>
</svg>
