<svg width="16" height="16" viewBox="0 0 16 16" fill="none" xmlns="http://www.w3.org/2000/svg">
<circle cx="8" cy="8" r="8" fill="#fb7268"/>
<path d="M8.37063 12.304C8.78663 12.288 9.29863 12.192 9.69863 12.016C10.2106 11.776 10.6586 11.472 10.9786 10.96C11.5706 9.952 11.2506 8.944 10.8026 8.4C10.4986 8.016 10.0026 7.648 8.51463 7.152L7.93863 6.944C7.68263 6.864 7.49063 6.752 7.28263 6.608C7.13863 6.512 7.02663 6.416 6.97863 6.32C6.88263 6.176 6.85063 6.016 6.97863 5.808C7.15463 5.568 7.45863 5.488 7.81063 5.472C8.25863 5.488 8.83463 5.584 9.33063 5.936C9.41063 6 9.47463 6.064 9.52263 6.128L11.0266 5.024C10.8666 4.8 10.6426 4.592 10.4026 4.4C9.53863 3.76 8.48263 3.616 7.81063 3.632C7.05863 3.664 5.89062 3.92 5.34663 4.928C4.86663 5.872 5.09063 6.912 5.57063 7.504C5.66663 7.648 5.92263 7.936 6.27463 8.16C6.57863 8.368 6.77063 8.48 7.23463 8.656L7.82663 8.88C8.94663 9.28 9.09063 9.312 9.31463 9.488C9.49063 9.616 9.53863 9.824 9.37863 10.048C9.28263 10.176 9.15463 10.256 8.97863 10.32C8.78663 10.4 8.61063 10.448 8.38663 10.464C7.79463 10.464 7.44263 10.352 6.85063 9.952C6.51463 9.712 6.35463 9.424 6.25863 9.216L4.67463 10.08C4.85063 10.416 5.25063 11.12 5.81063 11.536C6.62663 12.096 7.44263 12.336 8.37063 12.304Z" fill="#ffffff"/>
</svg>
