<svg width="17" height="17" viewBox="0 0 17 17" fill="none" xmlns="http://www.w3.org/2000/svg">
<path fill-rule="evenodd" clip-rule="evenodd" d="M4.78796 0H5.16075H10.8417H11.2145L11.4781 0.263604L15.7389 4.52435L16.0025 4.78796V5.16075V10.8417V11.2145L15.7389 11.4781L11.4781 15.7389L11.2145 16.0025H10.8417H5.16075H4.78796L4.52435 15.7389L0.263604 11.4781L0 11.2145V10.8417V5.16075V4.78796L0.263604 4.52435L4.52435 0.263604L4.78796 0ZM5.53354 1.8L1.8 5.53354V10.469L5.53354 14.2025H10.469L14.2025 10.469V5.53354L10.469 1.8H5.53354ZM7.11328 3.5625H8.73828V10.0625H7.11328V3.5625ZM8.00094 12.7753C8.49118 12.7753 8.88859 12.3779 8.88859 11.8877C8.88859 11.3974 8.49118 11 8.00094 11C7.5107 11 7.11328 11.3974 7.11328 11.8877C7.11328 12.3779 7.5107 12.7753 8.00094 12.7753Z" fill="#ffffff"/>
</svg>
