<svg width="17" height="17" viewBox="0 0 17 17" fill="none" xmlns="http://www.w3.org/2000/svg">
<path d="M4.40663 11.9457L5.65913 8.81448C5.85877 8.31565 6.15758 7.86254 6.53747 7.48258L13.4054 0.616645C13.8002 0.221814 14.3357 0 14.8941 0C15.4525 0 15.988 0.221814 16.3828 0.616645C16.7777 1.01148 16.9995 1.54698 16.9995 2.10536C16.9995 2.66373 16.7777 3.19924 16.3828 3.59407L9.5149 10.46C9.13478 10.8401 8.68122 11.1399 8.182 11.3393L5.05174 12.5918C4.96156 12.6279 4.86277 12.6368 4.76761 12.6173C4.67246 12.5977 4.58512 12.5507 4.51644 12.482C4.44775 12.4133 4.40074 12.326 4.38122 12.2309C4.3617 12.1357 4.37053 12.0369 4.40663 11.9467V11.9457Z" fill="white"/>
<path d="M2.48871 3.84063C2.48871 3.15583 3.0445 2.60004 3.7293 2.60004H8.9398C9.13721 2.60004 9.32654 2.52162 9.46614 2.38202C9.60573 2.24243 9.68415 2.0531 9.68415 1.85568C9.68415 1.65827 9.60573 1.46894 9.46614 1.32934C9.32654 1.18975 9.13721 1.11133 8.9398 1.11133H3.7293C3.00545 1.11133 2.31124 1.39888 1.79939 1.91072C1.28755 2.42257 1 3.11678 1 3.84063V13.2691C1 13.993 1.28755 14.6872 1.79939 15.1991C2.31124 15.7109 3.00545 15.9984 3.7293 15.9984H13.1578C13.8817 15.9984 14.5759 15.7109 15.0877 15.1991C15.5996 14.6872 15.8871 13.993 15.8871 13.2691V8.05865C15.8871 7.86123 15.8087 7.6719 15.6691 7.53231C15.5295 7.39272 15.3402 7.31429 15.1428 7.31429C14.9453 7.31429 14.756 7.39272 14.6164 7.53231C14.4768 7.6719 14.3984 7.86123 14.3984 8.05865V13.2691C14.3984 13.9539 13.8426 14.5097 13.1578 14.5097H3.7293C3.0445 14.5097 2.48871 13.9539 2.48871 13.2691V3.84063Z" fill="white" stroke="white" stroke-width="0.3"/>
</svg>
