<svg width="18" height="18" viewBox="0 0 18 18" fill="none" xmlns="http://www.w3.org/2000/svg">
<path fill-rule="evenodd" clip-rule="evenodd" d="M15.8 9C15.8 12.7555 12.7555 15.8 9 15.8C7.33826 15.8 5.81574 15.2039 4.63458 14.214L14.214 4.63458C15.2039 5.81574 15.8 7.33826 15.8 9ZM3.78605 13.3654L13.3654 3.78605C12.1843 2.79606 10.6617 2.2 9 2.2C5.24446 2.2 2.2 5.24446 2.2 9C2.2 10.6617 2.79606 12.1843 3.78605 13.3654ZM9 17C13.4183 17 17 13.4183 17 9C17 4.58172 13.4183 1 9 1C4.58172 1 1 4.58172 1 9C1 13.4183 4.58172 17 9 17Z" fill="#ffffff"/>
<path d="M4.63458 14.214L4.4578 14.0372L4.26478 14.2302L4.47399 14.4056L4.63458 14.214ZM14.214 4.63458L14.4056 4.47399L14.2302 4.26478L14.0372 4.4578L14.214 4.63458ZM3.78605 13.3654L3.59445 13.526L3.7698 13.7352L3.96283 13.5422L3.78605 13.3654ZM13.3654 3.78605L13.5422 3.96283L13.7352 3.7698L13.526 3.59445L13.3654 3.78605ZM9 16.05C12.8936 16.05 16.05 12.8936 16.05 9H15.55C15.55 12.6175 12.6175 15.55 9 15.55V16.05ZM4.47399 14.4056C5.69848 15.4319 7.27738 16.05 9 16.05V15.55C7.39914 15.55 5.933 14.976 4.79517 14.0224L4.47399 14.4056ZM14.0372 4.4578L4.4578 14.0372L4.81135 14.3907L14.3907 4.81135L14.0372 4.4578ZM16.05 9C16.05 7.27738 15.4319 5.69848 14.4056 4.47399L14.0224 4.79517C14.976 5.933 15.55 7.39914 15.55 9H16.05ZM3.96283 13.5422L13.5422 3.96283L13.1886 3.60927L3.60927 13.1886L3.96283 13.5422ZM13.526 3.59445C12.3015 2.56815 10.7226 1.95 9 1.95V2.45C10.6009 2.45 12.067 3.02398 13.2048 3.97765L13.526 3.59445ZM9 1.95C5.10639 1.95 1.95 5.10639 1.95 9H2.45C2.45 5.38253 5.38253 2.45 9 2.45V1.95ZM1.95 9C1.95 10.7226 2.56815 12.3015 3.59445 13.526L3.97765 13.2048C3.02398 12.067 2.45 10.6009 2.45 9H1.95ZM16.75 9C16.75 13.2802 13.2802 16.75 9 16.75V17.25C13.5563 17.25 17.25 13.5563 17.25 9H16.75ZM9 1.25C13.2802 1.25 16.75 4.71979 16.75 9H17.25C17.25 4.44365 13.5563 0.75 9 0.75V1.25ZM1.25 9C1.25 4.71979 4.71979 1.25 9 1.25V0.75C4.44365 0.75 0.75 4.44365 0.75 9H1.25ZM9 16.75C4.71979 16.75 1.25 13.2802 1.25 9H0.75C0.75 13.5563 4.44365 17.25 9 17.25V16.75Z" fill="#ffffff"/>
</svg>
