<svg width="60" height="60" viewBox="0 0 60 60" fill="none" xmlns="http://www.w3.org/2000/svg">
<g clip-path="url(#clip0_906_3076)">
<path d="M0 14C0 11.8783 0.790176 9.84344 2.1967 8.34315C3.60322 6.84285 5.51088 6 7.5 6H52.5C54.4891 6 56.3968 6.84285 57.8033 8.34315C59.2098 9.84344 60 11.8783 60 14V34H0V14ZM43.125 18C42.6277 18 42.1508 18.2107 41.7992 18.5858C41.4475 18.9609 41.25 19.4696 41.25 20V24C41.25 24.5304 41.4475 25.0391 41.7992 25.4142C42.1508 25.7893 42.6277 26 43.125 26H50.625C51.1223 26 51.5992 25.7893 51.9508 25.4142C52.3025 25.0391 52.5 24.5304 52.5 24V20C52.5 19.4696 52.3025 18.9609 51.9508 18.5858C51.5992 18.2107 51.1223 18 50.625 18H43.125ZM0 42V46C0 48.1217 0.790176 50.1566 2.1967 51.6569C3.60322 53.1571 5.51088 54 7.5 54H52.5C54.4891 54 56.3968 53.1571 57.8033 51.6569C59.2098 50.1566 60 48.1217 60 46V42H0Z" fill="#FB7268"/>
</g>
<defs>
<clipPath id="clip0_906_3076">
<rect width="60" height="48" fill="white" transform="translate(0 6)"/>
</clipPath>
</defs>
</svg>
