<svg width="12" height="16" viewBox="0 0 12 16" fill="none" xmlns="http://www.w3.org/2000/svg">
<path d="M5.59844 10.4C6.44713 10.4 7.26106 10.0629 7.86118 9.46274C8.4613 8.86263 8.79844 8.04869 8.79844 7.2V3.2C8.79844 2.35131 8.4613 1.53737 7.86118 0.937258C7.26106 0.337142 6.44713 0 5.59844 0C4.74974 0 3.93581 0.337142 3.3357 0.937258C2.73558 1.53737 2.39844 2.35131 2.39844 3.2V7.2C2.39844 8.04869 2.73558 8.86263 3.3357 9.46274C3.93581 10.0629 4.74974 10.4 5.59844 10.4Z" fill="white"/>
<path d="M11.2 7.20039C11.2 6.98822 11.1157 6.78473 10.9657 6.63471C10.8157 6.48468 10.6122 6.40039 10.4 6.40039C10.1878 6.40039 9.98434 6.48468 9.83431 6.63471C9.68429 6.78473 9.6 6.98822 9.6 7.20039C9.6 8.26126 9.17857 9.27867 8.42843 10.0288C7.67828 10.779 6.66087 11.2004 5.6 11.2004C4.53913 11.2004 3.52172 10.779 2.77157 10.0288C2.02143 9.27867 1.6 8.26126 1.6 7.20039C1.6 6.98822 1.51571 6.78473 1.36569 6.63471C1.21566 6.48468 1.01217 6.40039 0.8 6.40039C0.587827 6.40039 0.384344 6.48468 0.234315 6.63471C0.0842856 6.78473 0 6.98822 0 7.20039C0.00157689 8.54587 0.487526 9.8458 1.36894 10.8624C2.25036 11.8789 3.46832 12.5442 4.8 12.7364V14.4004H3.112C2.92317 14.4004 2.74207 14.4754 2.60854 14.6089C2.47501 14.7425 2.4 14.9236 2.4 15.1124V15.2884C2.4 15.4772 2.47501 15.6583 2.60854 15.7919C2.74207 15.9254 2.92317 16.0004 3.112 16.0004H8.088C8.27683 16.0004 8.45793 15.9254 8.59146 15.7919C8.72499 15.6583 8.8 15.4772 8.8 15.2884V15.1124C8.8 14.9236 8.72499 14.7425 8.59146 14.6089C8.45793 14.4754 8.27683 14.4004 8.088 14.4004H6.4V12.7364C7.73168 12.5442 8.94964 11.8789 9.83106 10.8624C10.7125 9.8458 11.1984 8.54587 11.2 7.20039Z" fill="white"/>
</svg>
