<svg width="10" height="10" viewBox="0 0 10 10" fill="none" xmlns="http://www.w3.org/2000/svg">
<path d="M8.07844 0.220115C8.24167 0.361098 8.33337 0.552285 8.33337 0.751634C8.33337 0.950983 8.24167 1.14217 8.07844 1.28315L3.76842 5.00454L8.07844 8.72592C8.23705 8.86771 8.32481 9.05762 8.32283 9.25474C8.32084 9.45186 8.22927 9.64042 8.06783 9.77981C7.9064 9.91919 7.68801 9.99826 7.45972 9.99997C7.23142 10.0017 7.01147 9.92591 6.84726 9.78896L1.92164 5.53606C1.75841 5.39508 1.66671 5.20389 1.66671 5.00454C1.66671 4.80519 1.75841 4.614 1.92164 4.47302L6.84726 0.220115C7.01054 0.0791756 7.23197 0 7.46285 0C7.69373 0 7.91516 0.0791756 8.07844 0.220115Z" fill="#6B6B6B"/>
</svg>
