<svg width="20" height="20" viewBox="0 0 20 20" fill="none" xmlns="http://www.w3.org/2000/svg">
<path d="M4.66667 15.3332H5.33333V14.6661H4.66667V15.3332ZM4.66667 19.3329H4C4 19.4568 4.03448 19.5782 4.09957 19.6836C4.16466 19.789 4.25779 19.8742 4.36852 19.9296C4.47926 19.985 4.60323 20.0084 4.72654 19.9973C4.84984 19.9862 4.96762 19.9409 5.06667 19.8666L4.66667 19.3329ZM10 15.3332V14.6661H9.77733L9.6 14.7995L10 15.3332ZM6 5.33253H5.33333V6.66667H6V5.33253ZM14 6.66667H14.6667V5.33253H14V6.66667ZM6 9.33227H5.33333V10.6664H6V9.33227ZM11.3333 10.6664H12V9.33227H11.3333V10.6664ZM4 15.3332V19.3329H5.33333V15.3332H4ZM5.06667 19.8666L10.4 15.8669L9.6 14.7995L4.26667 18.7993L5.06667 19.8666ZM10 16.0003H18V14.6661H10V16.0003ZM18 16.0003C19.1053 16.0003 20 15.1064 20 13.9991H18.6667C18.6667 14.3686 18.3693 14.6661 18 14.6661V16.0003ZM20 13.9991V2.0012H18.6667V14.0004H20V13.9991ZM20 2.0012C20 0.89387 19.1053 0 18 0V1.33413C18.3693 1.33413 18.6667 1.63165 18.6667 2.0012H20ZM18 0H2V1.33413H18V0ZM2 0C0.894667 0 0 0.89387 0 2.0012H1.33333C1.33333 1.63165 1.63067 1.33413 2 1.33413V0ZM0 2.0012V13.9991H1.33333V2.0012H0ZM0 13.9991C0 15.1064 0.894667 16.0003 2 16.0003V14.6661C1.9124 14.6663 1.82563 14.6492 1.74467 14.6157C1.66371 14.5823 1.59014 14.5331 1.5282 14.4711C1.46626 14.4092 1.41716 14.3356 1.38372 14.2545C1.35028 14.1735 1.33316 14.0867 1.33333 13.9991H0ZM2 16.0003H4.66667V14.6661H2V16.0003ZM6 6.66667H14V5.33253H6V6.66667ZM6 10.6664H11.3333V9.33227H6V10.6664Z" fill="black"/>
</svg>
