<svg width="11" height="12" viewBox="0 0 11 12" fill="none" xmlns="http://www.w3.org/2000/svg">
<rect width="2" height="12" rx="1" fill="#CCCCCC"/>
<path d="M10.6941 0.264139C10.89 0.433317 11 0.662742 11 0.901961C11 1.14118 10.89 1.37061 10.6941 1.53978L5.52205 6.00545L10.6941 10.4711C10.8844 10.6413 10.9897 10.8691 10.9873 11.1057C10.985 11.3422 10.8751 11.5685 10.6814 11.7358C10.4876 11.903 10.2256 11.9979 9.95161 12C9.67765 12.002 9.41372 11.9111 9.21666 11.7468L3.30592 6.64327C3.11004 6.47409 3 6.24467 3 6.00545C3 5.76623 3.11004 5.5368 3.30592 5.36762L9.21666 0.264139C9.4126 0.0950107 9.67831 0 9.95537 0C10.2324 0 10.4981 0.0950107 10.6941 0.264139V0.264139Z" fill="#CCCCCC"/>
</svg>
