<svg width="24" height="24" viewBox="0 0 24 24" fill="none" xmlns="http://www.w3.org/2000/svg">
<path d="M12 2.57568C9.243 2.57568 7 4.75071 7 7.42417V10.3333H6C5.46957 10.3333 4.96086 10.5376 4.58579 10.9013C4.21071 11.265 4 11.7583 4 12.2727V20.0302C4 20.5446 4.21071 21.0379 4.58579 21.4016C4.96086 21.7653 5.46957 21.9696 6 21.9696H18C18.5304 21.9696 19.0391 21.7653 19.4142 21.4016C19.7893 21.0379 20 20.5446 20 20.0302V12.2727C20 11.7583 19.7893 11.265 19.4142 10.9013C19.0391 10.5376 18.5304 10.3333 18 10.3333H17V7.42417C17 4.75071 14.757 2.57568 12 2.57568ZM9 7.42417C9 5.82029 10.346 4.51508 12 4.51508C13.654 4.51508 15 5.82029 15 7.42417V10.3333H9V7.42417ZM13 17.8222V20.0302H11V17.8222C10.6504 17.6281 10.3697 17.3358 10.1948 16.9838C10.02 16.6318 9.95928 16.2367 10.0207 15.8506C10.0821 15.4645 10.2627 15.1055 10.5388 14.821C10.8148 14.5364 11.1733 14.3397 11.567 14.2567C11.8594 14.194 12.1626 14.1957 12.4542 14.2618C12.7459 14.3278 13.0185 14.4566 13.252 14.6384C13.4855 14.8202 13.6739 15.0506 13.8034 15.3125C13.9328 15.5743 14 15.861 14 16.1514C13.9994 16.4906 13.9067 16.8236 13.7311 17.1169C13.5556 17.4102 13.3034 17.6535 13 17.8222Z" fill="white"/>
</svg>
