<svg width="20" height="24" viewBox="0 0 20 24" fill="none" xmlns="http://www.w3.org/2000/svg">
<g clip-path="url(#clip0_793_2072)">
<path d="M20 19.8594C20 20.9948 19.6745 21.9688 19.0234 22.7812C18.3724 23.5938 17.5885 24 16.6719 24H3.32812C2.41146 24 1.6276 23.5938 0.976562 22.7812C0.325521 21.9688 0 20.9948 0 19.8594C0 18.974 0.0442708 18.138 0.132812 17.3516C0.221354 16.5651 0.385417 15.7734 0.625 14.9766C0.864583 14.1797 1.16927 13.4974 1.53906 12.9297C1.90885 12.362 2.39844 11.8984 3.00781 11.5391C3.61719 11.1797 4.31771 11 5.10938 11C6.47396 12.3333 8.10417 13 10 13C11.8958 13 13.526 12.3333 14.8906 11C15.6823 11 16.3828 11.1797 16.9922 11.5391C17.6016 11.8984 18.0911 12.362 18.4609 12.9297C18.8307 13.4974 19.1354 14.1797 19.375 14.9766C19.6146 15.7734 19.7786 16.5651 19.8672 17.3516C19.9557 18.138 20 18.974 20 19.8594ZM16 6C16 7.65625 15.4141 9.07031 14.2422 10.2422C13.0703 11.4141 11.6562 12 10 12C8.34375 12 6.92969 11.4141 5.75781 10.2422C4.58594 9.07031 4 7.65625 4 6C4 4.34375 4.58594 2.92969 5.75781 1.75781C6.92969 0.585938 8.34375 0 10 0C11.6562 0 13.0703 0.585938 14.2422 1.75781C15.4141 2.92969 16 4.34375 16 6Z" fill="#FB7268"/>
</g>
<defs>
<clipPath id="clip0_793_2072">
<rect width="20" height="24" fill="white"/>
</clipPath>
</defs>
</svg>
