<svg width="16" height="16" viewBox="0 0 16 16" fill="none" xmlns="http://www.w3.org/2000/svg">
<path d="M15.2178 3.29778L12.7022 0.782222C12.2026 0.281982 11.5248 0.000622407 10.8178 0H5.18222C4.47522 0.000622407 3.79739 0.281982 3.29778 0.782222L0.782222 3.29778C0.281982 3.79739 0.000622407 4.47522 0 5.18222V13.3333C0 14.0406 0.280952 14.7189 0.781049 15.219C1.28115 15.719 1.95942 16 2.66667 16H13.3333C14.0406 16 14.7189 15.719 15.219 15.219C15.719 14.7189 16 14.0406 16 13.3333V5.18222C15.9994 4.47522 15.718 3.79739 15.2178 3.29778ZM4.55111 2.03556C4.72145 1.87313 4.94687 1.78105 5.18222 1.77778H10.8178C11.0531 1.78105 11.2785 1.87313 11.4489 2.03556L12.9689 3.55556H3.03111L4.55111 2.03556ZM13.3333 14.2222H2.66667C2.43092 14.2222 2.20483 14.1286 2.03813 13.9619C1.87143 13.7952 1.77778 13.5691 1.77778 13.3333V5.33333H14.2222V13.3333C14.2222 13.5691 14.1286 13.7952 13.9619 13.9619C13.7952 14.1286 13.5691 14.2222 13.3333 14.2222Z" fill="white"/>
<path d="M10.6675 7.11133C10.4318 7.11133 10.2057 7.20498 10.039 7.37168C9.8723 7.53838 9.77865 7.76447 9.77865 8.00022C9.77865 8.47171 9.59134 8.9239 9.25795 9.2573C8.92455 9.59069 8.47236 9.778 8.00087 9.778C7.52937 9.778 7.07719 9.59069 6.74379 9.2573C6.41039 8.9239 6.22309 8.47171 6.22309 8.00022C6.22309 7.76447 6.12944 7.53838 5.96274 7.37168C5.79604 7.20498 5.56995 7.11133 5.3342 7.11133C5.09845 7.11133 4.87236 7.20498 4.70566 7.37168C4.53896 7.53838 4.44531 7.76447 4.44531 8.00022C4.44531 8.94321 4.81991 9.84758 5.48671 10.5144C6.15351 11.1812 7.05788 11.5558 8.00087 11.5558C8.94386 11.5558 9.84823 11.1812 10.515 10.5144C11.1818 9.84758 11.5564 8.94321 11.5564 8.00022C11.5564 7.76447 11.4628 7.53838 11.2961 7.37168C11.1294 7.20498 10.9033 7.11133 10.6675 7.11133Z" fill="white"/>
</svg>
