<svg width="16" height="13" viewBox="0 0 16 13" fill="none" xmlns="http://www.w3.org/2000/svg">
<path d="M15.1429 2.58727L12.8571 3.92727V1.16364C12.8571 0.521818 12.3446 0 11.7143 0H1.14286C0.5125 0 0 0.521818 0 1.16364V11.6364C0 12.2782 0.5125 12.8 1.14286 12.8H11.7143C12.3446 12.8 12.8571 12.2782 12.8571 11.6364V8.87273L15.1429 10.2127C15.5232 10.4364 16 10.1564 16 9.71091V3.09091C16 2.64364 15.5232 2.36364 15.1429 2.58727ZM4.71429 3.49091C4.71429 3.57091 4.65 3.63636 4.57143 3.63636H2.57143C2.49286 3.63636 2.42857 3.57091 2.42857 3.49091V2.61818C2.42857 2.53818 2.49286 2.47273 2.57143 2.47273H4.57143C4.65 2.47273 4.71429 2.53818 4.71429 2.61818V3.49091ZM14.7143 8.45455L12.8571 7.36727V5.43455L14.7143 4.34545V8.45455Z" fill="white"/>
</svg>
