<svg width="18" height="18" viewBox="0 0 24 24" fill="none" xmlns="http://www.w3.org/2000/svg">
<path d="M12 14C13.1046 14 14 13.1046 14 12C14 10.8954 13.1046 10 12 10C10.8954 10 10 10.8954 10 12C10 13.1046 10.8954 14 12 14Z" fill="#fff"/>
<path d="M21.9603 11.7836C21.1762 9.84759 19.8149 8.1733 18.0447 6.96769C16.2745 5.76208 14.1731 5.078 12 5C9.82695 5.078 7.72547 5.76208 5.9553 6.96769C4.18512 8.1733 2.82385 9.84759 2.03972 11.7836C1.98676 11.9235 1.98676 12.0766 2.03972 12.2164C2.82385 14.1524 4.18512 15.8267 5.9553 17.0323C7.72547 18.2379 9.82695 18.922 12 19C14.1731 18.922 16.2745 18.2379 18.0447 17.0323C19.8149 15.8267 21.1762 14.1524 21.9603 12.2164C22.0132 12.0766 22.0132 11.9235 21.9603 11.7836ZM12 16.1364C11.1429 16.1364 10.3051 15.8938 9.59246 15.4393C8.87983 14.9848 8.3244 14.3387 7.99641 13.5829C7.66842 12.8271 7.5826 11.9954 7.74981 11.193C7.91702 10.3907 8.32974 9.65363 8.93578 9.07515C9.54183 8.49667 10.314 8.10272 11.1546 7.94312C11.9952 7.78351 12.8665 7.86543 13.6583 8.1785C14.4502 8.49157 15.127 9.02174 15.6031 9.70196C16.0793 10.3822 16.3335 11.1819 16.3335 12C16.3317 13.0965 15.8746 14.1476 15.0623 14.923C14.25 15.6983 13.1488 16.1347 12 16.1364Z" fill="#fff"/>
</svg>

