<svg width="29" height="27" viewBox="0 0 29 27" fill="none" xmlns="http://www.w3.org/2000/svg">
<g clip-path="url(#clip0_1030_9380)" filter="url(#filter0_d_1030_9380)">
<g clip-path="url(#clip1_1030_9380)">
<path d="M4.07764 4.77311C4.07764 4.06587 4.34103 3.38759 4.80987 2.88749C5.27871 2.3874 5.9146 2.10645 6.57764 2.10645H21.5776C22.2407 2.10645 22.8766 2.3874 23.3454 2.88749C23.8142 3.38759 24.0776 4.06587 24.0776 4.77311V11.4398H4.07764V4.77311ZM18.4526 6.10645C18.2869 6.10645 18.1279 6.17668 18.0107 6.30171C17.8935 6.42673 17.8276 6.5963 17.8276 6.77311V8.10645C17.8276 8.28326 17.8935 8.45283 18.0107 8.57785C18.1279 8.70287 18.2869 8.77311 18.4526 8.77311H20.9526C21.1184 8.77311 21.2774 8.70287 21.3946 8.57785C21.5118 8.45283 21.5776 8.28326 21.5776 8.10645V6.77311C21.5776 6.5963 21.5118 6.42673 21.3946 6.30171C21.2774 6.17668 21.1184 6.10645 20.9526 6.10645H18.4526ZM4.07764 14.1064V15.4398C4.07764 16.147 4.34103 16.8253 4.80987 17.3254C5.27871 17.8255 5.9146 18.1064 6.57764 18.1064H21.5776C22.2407 18.1064 22.8766 17.8255 23.3454 17.3254C23.8142 16.8253 24.0776 16.147 24.0776 15.4398V14.1064H4.07764Z" fill="white"/>
</g>
</g>
<defs>
<filter id="filter0_d_1030_9380" x="0.0776367" y="0.106445" width="28" height="28" filterUnits="userSpaceOnUse" color-interpolation-filters="sRGB">
<feFlood flood-opacity="0" result="BackgroundImageFix"/>
<feColorMatrix in="SourceAlpha" type="matrix" values="0 0 0 0 0 0 0 0 0 0 0 0 0 0 0 0 0 0 127 0" result="hardAlpha"/>
<feOffset dy="4"/>
<feGaussianBlur stdDeviation="2"/>
<feComposite in2="hardAlpha" operator="out"/>
<feColorMatrix type="matrix" values="0 0 0 0 0 0 0 0 0 0 0 0 0 0 0 0 0 0 0.25 0"/>
<feBlend mode="normal" in2="BackgroundImageFix" result="effect1_dropShadow_1030_9380"/>
<feBlend mode="normal" in="SourceGraphic" in2="effect1_dropShadow_1030_9380" result="shape"/>
</filter>
<clipPath id="clip0_1030_9380">
<rect width="20" height="20" fill="white" transform="translate(4.07764 0.106445)"/>
</clipPath>
<clipPath id="clip1_1030_9380">
<rect width="20" height="16" fill="white" transform="translate(4.07764 2.10645)"/>
</clipPath>
</defs>
</svg>
