<svg width="25" height="24" viewBox="0 0 25 24" fill="none" xmlns="http://www.w3.org/2000/svg">
<path d="M19.3434 4.93002C17.7026 3.27852 15.5371 2.25124 13.2201 2.02526C10.903 1.79929 8.57978 2.3888 6.65082 3.69215C4.72186 4.99551 3.30807 6.93103 2.6532 9.16503C1.99833 11.399 2.14341 13.7915 3.06343 15.93C3.15932 16.1288 3.19079 16.3525 3.15343 16.57L2.27343 20.8C2.23953 20.9622 2.24645 21.1303 2.29358 21.2891C2.34071 21.4479 2.42657 21.5926 2.54343 21.71C2.63924 21.8051 2.75331 21.8799 2.87877 21.9297C3.00423 21.9795 3.13848 22.0035 3.27343 22H3.47343L7.75343 21.14C7.97096 21.1139 8.19155 21.1449 8.39343 21.23C10.5319 22.15 12.9244 22.2951 15.1584 21.6403C17.3924 20.9854 19.3279 19.5716 20.6313 17.6426C21.9347 15.7137 22.5242 13.3904 22.2982 11.0734C22.0722 8.75638 21.0449 6.59081 19.3934 4.95002L19.3434 4.93002ZM8.27343 13C8.07565 13 7.88231 12.9414 7.71786 12.8315C7.55341 12.7216 7.42524 12.5654 7.34955 12.3827C7.27387 12.2 7.25406 11.9989 7.29265 11.8049C7.33123 11.611 7.42647 11.4328 7.56633 11.2929C7.70618 11.1531 7.88436 11.0578 8.07834 11.0192C8.27232 10.9807 8.47339 11.0005 8.65612 11.0761C8.83884 11.1518 8.99502 11.28 9.1049 11.4445C9.21478 11.6089 9.27343 11.8022 9.27343 12C9.27343 12.2652 9.16808 12.5196 8.98054 12.7071C8.793 12.8947 8.53865 13 8.27343 13ZM12.2734 13C12.0757 13 11.8823 12.9414 11.7179 12.8315C11.5534 12.7216 11.4252 12.5654 11.3496 12.3827C11.2739 12.2 11.2541 11.9989 11.2926 11.8049C11.3312 11.611 11.4265 11.4328 11.5663 11.2929C11.7062 11.1531 11.8844 11.0578 12.0783 11.0192C12.2723 10.9807 12.4734 11.0005 12.6561 11.0761C12.8388 11.1518 12.995 11.28 13.1049 11.4445C13.2148 11.6089 13.2734 11.8022 13.2734 12C13.2734 12.2652 13.1681 12.5196 12.9805 12.7071C12.793 12.8947 12.5387 13 12.2734 13ZM16.2734 13C16.0757 13 15.8823 12.9414 15.7179 12.8315C15.5534 12.7216 15.4252 12.5654 15.3496 12.3827C15.2739 12.2 15.2541 11.9989 15.2926 11.8049C15.3312 11.611 15.4265 11.4328 15.5663 11.2929C15.7062 11.1531 15.8844 11.0578 16.0783 11.0192C16.2723 10.9807 16.4734 11.0005 16.6561 11.0761C16.8388 11.1518 16.995 11.28 17.1049 11.4445C17.2148 11.6089 17.2734 11.8022 17.2734 12C17.2734 12.2652 17.1681 12.5196 16.9805 12.7071C16.793 12.8947 16.5387 13 16.2734 13Z" fill="#FB7268"/>
</svg>
