<svg width="15" height="16" viewBox="0 0 15 16" fill="none" xmlns="http://www.w3.org/2000/svg">
<path d="M15 5.552C14.9913 5.47851 14.9746 5.4061 14.95 5.336V5.264C14.9099 5.18174 14.8565 5.10613 14.7917 5.04L9.79167 0.24C9.72278 0.177773 9.64402 0.126465 9.55833 0.0879999C9.53346 0.0846081 9.50821 0.0846081 9.48333 0.0879999C9.39868 0.041393 9.30519 0.0114754 9.20833 0H5.83333C5.17029 0 4.53441 0.252856 4.06557 0.702944C3.59673 1.15303 3.33333 1.76348 3.33333 2.4V3.2H2.5C1.83696 3.2 1.20107 3.45286 0.732233 3.90294C0.263392 4.35303 0 4.96348 0 5.6V13.6C0 14.2365 0.263392 14.847 0.732233 15.2971C1.20107 15.7471 1.83696 16 2.5 16H9.16667C9.82971 16 10.4656 15.7471 10.9344 15.2971C11.4033 14.847 11.6667 14.2365 11.6667 13.6V12.8H12.5C13.163 12.8 13.7989 12.5471 14.2678 12.0971C14.7366 11.647 15 11.0365 15 10.4V5.552ZM10 2.728L12.1583 4.8H10.8333C10.6123 4.8 10.4004 4.71571 10.2441 4.56569C10.0878 4.41566 10 4.21217 10 4V2.728ZM10 13.6C10 13.8122 9.9122 14.0157 9.75592 14.1657C9.59964 14.3157 9.38768 14.4 9.16667 14.4H2.5C2.27899 14.4 2.06702 14.3157 1.91074 14.1657C1.75446 14.0157 1.66667 13.8122 1.66667 13.6V5.6C1.66667 5.38783 1.75446 5.18434 1.91074 5.03431C2.06702 4.88429 2.27899 4.8 2.5 4.8H3.33333V10.4C3.33333 11.0365 3.59673 11.647 4.06557 12.0971C4.53441 12.5471 5.17029 12.8 5.83333 12.8H10V13.6ZM13.3333 10.4C13.3333 10.6122 13.2455 10.8157 13.0893 10.9657C12.933 11.1157 12.721 11.2 12.5 11.2H5.83333C5.61232 11.2 5.40036 11.1157 5.24408 10.9657C5.0878 10.8157 5 10.6122 5 10.4V2.4C5 2.18783 5.0878 1.98434 5.24408 1.83431C5.40036 1.68429 5.61232 1.6 5.83333 1.6H8.33333V4C8.33333 4.63652 8.59672 5.24697 9.06557 5.69706C9.53441 6.14714 10.1703 6.4 10.8333 6.4H13.3333V10.4Z" fill="#ffffff"/>
</svg>
