<svg width="18" height="17" viewBox="0 0 18 17" fill="none" xmlns="http://www.w3.org/2000/svg">
<path d="M13.6317 16.5008C13.4984 16.5014 13.3669 16.4699 13.2483 16.4092L8.99834 14.1842L4.74834 16.4092C4.61033 16.4817 4.45473 16.5141 4.29923 16.5027C4.14373 16.4912 3.99457 16.4363 3.86869 16.3443C3.74282 16.2523 3.64529 16.1268 3.58718 15.9821C3.52908 15.8374 3.51273 15.6793 3.54 15.5258L4.37334 10.8342L0.940004 7.50082C0.832885 7.39393 0.756897 7.25988 0.720194 7.11307C0.683491 6.96625 0.687458 6.81222 0.731671 6.66749C0.779971 6.51938 0.868818 6.38778 0.988129 6.28762C1.10744 6.18746 1.25244 6.12274 1.40667 6.10082L6.15667 5.40915L8.24834 1.13415C8.31657 0.993262 8.42312 0.874439 8.55576 0.791299C8.68841 0.708159 8.84179 0.664062 8.99834 0.664062C9.15488 0.664062 9.30827 0.708159 9.44091 0.791299C9.57356 0.874439 9.6801 0.993262 9.74834 1.13415L11.865 5.40082L16.615 6.09249C16.7692 6.11441 16.9142 6.17912 17.0335 6.27929C17.1529 6.37945 17.2417 6.51105 17.29 6.65915C17.3342 6.80388 17.3382 6.95792 17.3015 7.10473C17.2648 7.25154 17.1888 7.38559 17.0817 7.49249L13.6483 10.8258L14.4817 15.5175C14.5114 15.6737 14.4958 15.8352 14.4368 15.9829C14.3777 16.1305 14.2776 16.2582 14.1483 16.3508C13.9974 16.4566 13.8157 16.5093 13.6317 16.5008Z" fill="#FB7268"/>
</svg>
