<svg width="16" height="17" viewBox="0 0 16 17" fill="none" xmlns="http://www.w3.org/2000/svg">
<circle cx="8" cy="8.87866" r="8" fill="#FB7268"/>
<path d="M8.21063 13.1827C7.35729 13.1827 6.55729 12.9267 5.81063 12.4147C5.40529 12.116 5.02663 11.6307 4.67463 10.9587L6.25863 10.0947C6.39729 10.404 6.59463 10.6493 6.85063 10.8307C7.14929 11.0333 7.40529 11.172 7.61863 11.2467C7.83196 11.3107 8.08796 11.3427 8.38663 11.3427C8.58929 11.332 8.78663 11.284 8.97863 11.1987C9.15996 11.1347 9.29329 11.044 9.37863 10.9267C9.44263 10.8307 9.47463 10.74 9.47463 10.6547C9.47463 10.548 9.42129 10.452 9.31463 10.3667C9.21863 10.292 9.09596 10.228 8.94663 10.1747C8.79729 10.1107 8.58396 10.0307 8.30663 9.93466L7.82663 9.75866L7.23463 9.53466C7.01063 9.44933 6.83463 9.37466 6.70663 9.31066C6.57863 9.236 6.43463 9.14533 6.27463 9.03866C5.96529 8.84666 5.73063 8.628 5.57063 8.38266C5.42129 8.19066 5.29863 7.96666 5.20263 7.71066C5.11729 7.45466 5.07463 7.19333 5.07463 6.92666C5.07463 6.532 5.16529 6.15866 5.34663 5.80666C5.59196 5.33733 5.95996 5.00666 6.45063 4.81466C6.94129 4.612 7.42663 4.51066 7.90663 4.51066C8.31196 4.51066 8.73329 4.56933 9.17063 4.68666C9.61863 4.80399 10.0293 5.00133 10.4026 5.27866C10.68 5.50266 10.888 5.71066 11.0266 5.90266L9.52263 7.00666C9.47996 6.94266 9.41596 6.87866 9.33063 6.81466C8.92529 6.52666 8.41863 6.372 7.81063 6.35066C7.40529 6.372 7.12796 6.484 6.97863 6.68666C6.92529 6.76133 6.89863 6.84666 6.89863 6.94266C6.89863 7.028 6.92529 7.11333 6.97863 7.19866C7.02129 7.284 7.12263 7.38 7.28263 7.48666C7.51729 7.64666 7.73596 7.75866 7.93863 7.82266L8.51463 8.03066C9.20796 8.26533 9.71996 8.47866 10.0506 8.67066C10.3813 8.86266 10.632 9.06533 10.8026 9.27866C11.1333 9.684 11.2986 10.1533 11.2986 10.6867C11.2986 11.0707 11.192 11.4547 10.9786 11.8387C10.712 12.2653 10.2853 12.6173 9.69863 12.8947C9.48529 12.9907 9.23996 13.06 8.96263 13.1027C8.69596 13.156 8.44529 13.1827 8.21063 13.1827Z" fill="white"/>
</svg>
