<svg width="12" height="12" viewBox="0 0 12 12" fill="none" xmlns="http://www.w3.org/2000/svg">
<path d="M9.69408 0.264138C9.88996 0.433317 10 0.662742 10 0.901961C10 1.14118 9.88996 1.37061 9.69408 1.53978L4.52205 6.00545L9.69408 10.4711C9.88441 10.6413 9.98973 10.8691 9.98734 11.1057C9.98496 11.3422 9.87508 11.5685 9.68135 11.7358C9.48763 11.903 9.22557 11.9979 8.95161 12C8.67765 12.002 8.41372 11.9111 8.21666 11.7468L2.30592 6.64327C2.11004 6.47409 2 6.24467 2 6.00545C2 5.76623 2.11004 5.5368 2.30592 5.36762L8.21666 0.264138C8.4126 0.0950107 8.67831 0 8.95537 0C9.23243 0 9.49814 0.0950107 9.69408 0.264138Z" fill="#CCCCCC"/>
</svg>
