<svg width="18" height="18" viewBox="0 0 18 18" fill="none" xmlns="http://www.w3.org/2000/svg">
<path d="M9 2.14286C8.09951 2.14286 7.20783 2.32022 6.37589 2.66483C5.54394 3.00943 4.78801 3.51452 4.15127 4.15127C3.51452 4.78801 3.00943 5.54394 2.66483 6.37589C2.32022 7.20783 2.14286 8.09951 2.14286 9C2.14286 9.90049 2.32022 10.7922 2.66483 11.6241C3.00943 12.4561 3.51452 13.212 4.15127 13.8487C4.78801 14.4855 5.54394 14.9906 6.37589 15.3352C7.20783 15.6798 8.09951 15.8571 9 15.8571C10.8186 15.8571 12.5628 15.1347 13.8487 13.8487C15.1347 12.5628 15.8571 10.8186 15.8571 9C15.8571 7.18137 15.1347 5.43723 13.8487 4.15127C12.5628 2.8653 10.8186 2.14286 9 2.14286ZM9 1C11.1217 1 13.1566 1.84285 14.6569 3.34315C16.1571 4.84344 17 6.87827 17 9C17 11.1217 16.1571 13.1566 14.6569 14.6569C13.1566 16.1571 11.1217 17 9 17C6.87827 17 4.84344 16.1571 3.34315 14.6569C1.84285 13.1566 1 11.1217 1 9C1 6.87827 1.84285 4.84344 3.34315 3.34315C4.84344 1.84285 6.87827 1 9 1Z" fill="white" stroke="white" stroke-width="0.5"/>
<path d="M11.448 5C12.2139 5 12.5968 5.38197 12.5968 6.14591C12.5968 6.90985 12.2139 7.29183 11.448 7.29183C10.6822 7.29183 10.2993 6.90985 10.2993 6.14591C10.2993 5.38197 10.6822 5 11.448 5ZM3.81333 14L3 13.1887L6.33257 9.86555C6.62102 9.57768 7.00251 9.40126 7.40914 9.36769C7.81578 9.33411 8.22116 9.44556 8.55313 9.6822L11.0345 11.4492C11.1405 11.5246 11.2691 11.5618 11.3991 11.5547C11.5292 11.5477 11.6529 11.4967 11.7501 11.4102L16.2349 7.40642L17 8.26127L12.5164 12.2639C12.2247 12.5244 11.8528 12.6779 11.4619 12.6994C11.071 12.7208 10.6845 12.6089 10.3659 12.382L7.88455 10.6138C7.77393 10.5355 7.63908 10.4987 7.50388 10.51C7.36867 10.5213 7.24186 10.58 7.14589 10.6757L3.81333 13.9989V14Z" fill="white" stroke="white" stroke-width="0.5"/>
</svg>
