<svg width="15" height="16" viewBox="0 0 15 16" fill="none" xmlns="http://www.w3.org/2000/svg">
<path d="M12.1967 15.9998C11.7766 16.0047 11.3611 15.9111 10.9827 15.7262C10.6042 15.5413 10.2731 15.2702 10.0153 14.9341C9.75745 14.5979 9.57985 14.2059 9.4964 13.7887C9.41294 13.3714 9.42589 12.9402 9.53422 12.5289L4.60746 9.67526C4.19185 10.0611 3.66927 10.3082 3.11048 10.3831C2.55169 10.458 1.98368 10.3571 1.48336 10.0941C0.983043 9.83098 0.574587 9.41845 0.3133 8.91233C0.0520121 8.40621 -0.0494847 7.83094 0.0225524 7.26443C0.0945894 6.69792 0.33668 6.16752 0.716045 5.74506C1.09541 5.32259 1.59372 5.02847 2.14351 4.90252C2.69329 4.77657 3.26799 4.82487 3.78979 5.04089C4.31159 5.2569 4.75528 5.63019 5.06078 6.11022L9.53344 3.51898C9.47558 3.29741 9.44492 3.06945 9.44214 2.84027C9.43667 2.19284 9.65151 1.56328 10.0505 1.05759C10.4494 0.551891 11.0082 0.200952 11.6326 0.0638589C12.257 -0.0732339 12.909 0.0118935 13.4787 0.304908C14.0484 0.597922 14.5011 1.08092 14.7606 1.67259C15.02 2.26425 15.0703 2.92844 14.9031 3.55331C14.7359 4.17818 14.3613 4.72557 13.8424 5.10332C13.3235 5.48106 12.692 5.66607 12.0542 5.62721C11.4165 5.58835 10.8114 5.32799 10.3409 4.88997L5.50073 7.69335C5.49522 7.90071 5.46689 8.10568 5.41495 8.30587L10.3417 11.1587C10.6715 10.852 11.0701 10.6315 11.503 10.5164C11.9358 10.4012 12.3899 10.3948 12.8258 10.4977C13.2617 10.6006 13.6662 10.8098 14.0043 11.107C14.3423 11.4043 14.6037 11.7806 14.7657 12.2034C14.9277 12.6262 14.9854 13.0827 14.9339 13.5332C14.8824 13.9837 14.7232 14.4147 14.4701 14.7888C14.217 15.1628 13.8776 15.4686 13.4814 15.6797C13.0853 15.8907 12.6443 16.0006 12.1967 15.9998V15.9998ZM12.1967 12.0121C11.8836 12.0121 11.5834 12.1381 11.362 12.3625C11.1406 12.5868 11.0162 12.8911 11.0162 13.2084C11.0162 13.5257 11.1406 13.83 11.362 14.0543C11.5834 14.2787 11.8836 14.4047 12.1967 14.4047C12.5098 14.4047 12.8101 14.2787 13.0315 14.0543C13.2529 13.83 13.3773 13.5257 13.3773 13.2084C13.3773 12.8911 13.2529 12.5868 13.0315 12.3625C12.8101 12.1381 12.5098 12.0121 12.1967 12.0121ZM2.75245 6.42923C2.43935 6.42923 2.13908 6.55528 1.91768 6.77963C1.69629 7.00398 1.57191 7.30827 1.57191 7.62556C1.57191 7.94284 1.69629 8.24713 1.91768 8.47149C2.13908 8.69584 2.43935 8.82188 2.75245 8.82188C3.06554 8.82188 3.36582 8.69584 3.58721 8.47149C3.8086 8.24713 3.93298 7.94284 3.93298 7.62556C3.93298 7.30827 3.8086 7.00398 3.58721 6.77963C3.36582 6.55528 3.06554 6.42923 2.75245 6.42923ZM12.1967 1.64394C12.0417 1.64394 11.8882 1.67489 11.745 1.73501C11.6017 1.79513 11.4716 1.88325 11.362 1.99434C11.2523 2.10543 11.1654 2.23731 11.1061 2.38245C11.0467 2.5276 11.0162 2.68316 11.0162 2.84027C11.0162 2.99737 11.0467 3.15293 11.1061 3.29808C11.1654 3.44322 11.2523 3.57511 11.362 3.68619C11.4716 3.79728 11.6017 3.8854 11.745 3.94552C11.8882 4.00565 12.0417 4.03659 12.1967 4.03659C12.5098 4.03659 12.8101 3.91055 13.0315 3.68619C13.2529 3.46184 13.3773 3.15755 13.3773 2.84027C13.3773 2.52298 13.2529 2.21869 13.0315 1.99434C12.8101 1.76998 12.5098 1.64394 12.1967 1.64394V1.64394Z" fill="#ffffff"/>
</svg>
