<svg width="25" height="24" viewBox="0 0 25 24" fill="none" xmlns="http://www.w3.org/2000/svg">
<path d="M11.7496 19.35C13.5007 19.3522 15.2045 18.7985 16.6174 17.773L19.7915 20.9565C19.917 21.083 20.0663 21.1834 20.2308 21.252C20.3953 21.3205 20.5718 21.3558 20.75 21.3558C20.9282 21.3558 21.1047 21.3205 21.2692 21.252C21.4333 21.1836 21.5822 21.0835 21.7075 20.9575C21.8335 20.8322 21.9336 20.6833 22.002 20.5192C22.0705 20.3547 22.1058 20.1782 22.1058 20C22.1058 19.8218 22.0705 19.6453 22.002 19.4808C21.9334 19.3163 21.833 19.167 21.7065 19.0415L18.523 15.8674L19.75 11H20.1C20.1 10.9999 20.1 10.9997 20.1 10.9996C20.0999 9.34825 19.6102 7.73402 18.6928 6.36099C17.7753 4.98784 16.4712 3.9176 14.9454 3.28561C13.4196 2.65362 11.7407 2.48826 10.121 2.81045C8.50126 3.13263 7.01343 3.92789 5.84566 5.09566C4.67789 6.26343 3.88263 7.75126 3.56045 9.371C3.23826 10.9907 3.40362 12.6696 4.03561 14.1954C4.6676 15.7212 5.73784 17.0253 7.11099 17.9428C8.48402 18.8602 10.0982 19.3499 11.7496 19.35ZM11.7496 19.35L11.75 19M11.7496 19.35C11.7497 19.35 11.7499 19.35 11.75 19.35V19M11.75 19C13.5267 19.0022 15.2525 18.407 16.65 17.31M11.75 19L16.65 17.31M16.65 17.31L20.04 20.71C20.133 20.8037 20.2436 20.8781 20.3654 20.9289C20.4873 20.9797 20.618 21.0058 20.75 21.0058C20.882 21.0058 21.0127 20.9797 21.1346 20.9289C21.2564 20.8781 21.367 20.8037 21.46 20.71L16.65 17.31ZM6.1 11C6.1 9.88254 6.43137 8.79017 7.0522 7.86103C7.67303 6.93189 8.55544 6.20772 9.58784 5.78008C10.6202 5.35245 11.7563 5.24056 12.8523 5.45857C13.9483 5.67657 14.955 6.21468 15.7452 7.00485C16.5353 7.79502 17.0734 8.80175 17.2914 9.89774C17.5094 10.9937 17.3976 12.1298 16.9699 13.1622C16.5423 14.1946 15.8181 15.077 14.889 15.6978C13.9598 16.3186 12.8675 16.65 11.75 16.65C10.2515 16.65 8.81443 16.0547 7.75485 14.9952C6.69527 13.9356 6.1 12.4985 6.1 11Z" fill="#FB7268" stroke="#FB7268" stroke-width="0.7"/>
</svg>
