<svg width="20" height="18" viewBox="0 0 20 18" fill="none" xmlns="http://www.w3.org/2000/svg">
<path d="M7.94048e-08 5.40093C-0.000122982 4.68329 0.142796 3.97284 0.420403 3.31107C0.69801 2.64931 1.10474 2.04952 1.61681 1.54675C2.12889 1.04399 2.73604 0.648335 3.40279 0.382916C4.06953 0.117496 4.78249 -0.0123634 5.5 0.000926073C6.34896 -0.00358242 7.18919 0.172396 7.96499 0.517197C8.74079 0.861998 9.43445 1.36775 10 2.00093C10.5655 1.36775 11.2592 0.861998 12.035 0.517197C12.8108 0.172396 13.651 -0.00358242 14.5 0.000926073C15.2175 -0.0123634 15.9305 0.117496 16.5972 0.382916C17.264 0.648335 17.8711 1.04399 18.3832 1.54675C18.8953 2.04952 19.302 2.64931 19.5796 3.31107C19.8572 3.97284 20.0001 4.68329 20 5.40093C20 10.7569 13.621 14.8009 10 18.0009C6.387 14.7739 7.94048e-08 10.7609 7.94048e-08 5.40093Z" fill="#FB7268"/>
</svg>
