<svg width="16" height="16" viewBox="0 0 16 16" fill="none" xmlns="http://www.w3.org/2000/svg">
<path d="M8.00017 1.33301C11.6822 1.33301 14.6668 4.31767 14.6668 7.99967C14.6668 11.6817 11.6822 14.6663 8.00017 14.6663C6.92165 14.6678 5.85902 14.4065 4.90417 13.905L2.04417 14.6497C1.94861 14.6746 1.8482 14.674 1.7529 14.6482C1.65759 14.6223 1.57071 14.572 1.50085 14.5022C1.43098 14.4324 1.38058 14.3456 1.35461 14.2503C1.32865 14.155 1.32804 14.0546 1.35284 13.959L2.09684 11.0997C1.59404 10.1438 1.33202 9.07971 1.3335 7.99967C1.3335 4.31767 4.31817 1.33301 8.00017 1.33301ZM8.83484 8.66634H5.8335L5.7655 8.67101C5.64583 8.68747 5.53616 8.74671 5.45678 8.83777C5.37739 8.92882 5.33366 9.04554 5.33366 9.16634C5.33366 9.28714 5.37739 9.40386 5.45678 9.49492C5.53616 9.58597 5.64583 9.64521 5.7655 9.66167L5.8335 9.66634H8.83484L8.90217 9.66167C9.02184 9.64521 9.13151 9.58597 9.2109 9.49492C9.29028 9.40386 9.33402 9.28714 9.33402 9.16634C9.33402 9.04554 9.29028 8.92882 9.2109 8.83777C9.13151 8.74671 9.02184 8.68747 8.90217 8.67101L8.83484 8.66634ZM10.1668 6.33301H5.8335L5.7655 6.33767C5.64583 6.35414 5.53616 6.41338 5.45678 6.50443C5.37739 6.59549 5.33366 6.71221 5.33366 6.83301C5.33366 6.95381 5.37739 7.07053 5.45678 7.16158C5.53616 7.25264 5.64583 7.31188 5.7655 7.32834L5.8335 7.33301H10.1668L10.2348 7.32834C10.3545 7.31188 10.4642 7.25264 10.5436 7.16158C10.6229 7.07053 10.6667 6.95381 10.6667 6.83301C10.6667 6.71221 10.6229 6.59549 10.5436 6.50443C10.4642 6.41338 10.3545 6.35414 10.2348 6.33767L10.1668 6.33301Z" fill="black"/>
</svg>
