<svg width="16" height="20" viewBox="0 0 16 20" fill="none" xmlns="http://www.w3.org/2000/svg">
<path d="M16 16.5495C16 17.4957 15.7396 18.3073 15.2188 18.9844C14.6979 19.6615 14.0708 20 13.3375 20H2.6625C1.92917 20 1.30208 19.6615 0.78125 18.9844C0.260417 18.3073 0 17.4957 0 16.5495C0 15.8116 0.0354167 15.115 0.10625 14.4596C0.177083 13.8043 0.308333 13.1445 0.5 12.4805C0.691667 11.8164 0.935417 11.2478 1.23125 10.7747C1.52708 10.3016 1.91875 9.91536 2.40625 9.61588C2.89375 9.31641 3.45417 9.16667 4.0875 9.16667C5.17917 10.2778 6.48333 10.8333 8 10.8333C9.51667 10.8333 10.8208 10.2778 11.9125 9.16667C12.5458 9.16667 13.1062 9.31641 13.5938 9.61588C14.0813 9.91536 14.4729 10.3016 14.7688 10.7747C15.0646 11.2478 15.3083 11.8164 15.5 12.4805C15.6917 13.1445 15.8229 13.8043 15.8938 14.4596C15.9646 15.115 16 15.8116 16 16.5495ZM12.8 5C12.8 6.38021 12.3313 7.55859 11.3938 8.53516C10.4563 9.51172 9.325 10 8 10C6.675 10 5.54375 9.51172 4.60625 8.53516C3.66875 7.55859 3.2 6.38021 3.2 5C3.2 3.61979 3.66875 2.44141 4.60625 1.46484C5.54375 0.488281 6.675 0 8 0C9.325 0 10.4563 0.488281 11.3938 1.46484C12.3313 2.44141 12.8 3.61979 12.8 5Z" fill="#FB7268"/>
</svg>
