<svg width="24" height="25" viewBox="0 0 24 25" fill="none" xmlns="http://www.w3.org/2000/svg">
<path d="M20.7043 19.7848L17.3054 16.3958C18.402 14.9988 18.9971 13.2735 18.9948 11.4974C18.9948 9.91569 18.5258 8.36947 17.647 7.0543C16.7683 5.73913 15.5192 4.71408 14.0579 4.10877C12.5966 3.50347 10.9886 3.34509 9.43721 3.65367C7.88586 3.96225 6.46085 4.72393 5.34239 5.84239C4.22393 6.96085 3.46225 8.38586 3.15367 9.93721C2.84509 11.4886 3.00347 13.0966 3.60877 14.5579C4.21408 16.0192 5.23913 17.2683 6.5543 18.147C7.86947 19.0258 9.41569 19.4948 10.9974 19.4948C12.7735 19.4971 14.4988 18.902 15.8958 17.8054L19.2848 21.2043C19.3777 21.298 19.4883 21.3724 19.6101 21.4231C19.7319 21.4739 19.8626 21.5 19.9945 21.5C20.1265 21.5 20.2572 21.4739 20.379 21.4231C20.5008 21.3724 20.6114 21.298 20.7043 21.2043C20.798 21.1114 20.8724 21.0008 20.9231 20.879C20.9739 20.7572 21 20.6265 21 20.4945C21 20.3626 20.9739 20.2319 20.9231 20.1101C20.8724 19.9883 20.798 19.8777 20.7043 19.7848V19.7848ZM4.99936 11.4974C4.99936 10.3111 5.35114 9.15146 6.01022 8.16508C6.66929 7.1787 7.60606 6.40991 8.70207 5.95593C9.79807 5.50196 11.0041 5.38317 12.1676 5.61461C13.3311 5.84605 14.3999 6.41731 15.2387 7.25615C16.0775 8.095 16.6488 9.16375 16.8802 10.3273C17.1117 11.4908 16.9929 12.6968 16.5389 13.7928C16.0849 14.8888 15.3162 15.8256 14.3298 16.4846C13.3434 17.1437 12.1837 17.4955 10.9974 17.4955C9.40664 17.4955 7.88101 16.8636 6.75615 15.7387C5.6313 14.6138 4.99936 13.0882 4.99936 11.4974Z" fill="#CCCCCC" stroke="#CCCCCC"/>
</svg>
