<svg width="20" height="20" viewBox="0 0 20 20" fill="none" xmlns="http://www.w3.org/2000/svg">
<mask id="mask0_61_1242" style="mask-type:alpha" maskUnits="userSpaceOnUse" x="0" y="0" width="20" height="20">
<path d="M15 13.3334C15.8841 13.3334 16.7319 12.9822 17.357 12.3571C17.9821 11.732 18.3333 10.8841 18.3333 10.0001C18.3333 9.11603 17.9821 8.26818 17.357 7.64306C16.7319 7.01794 15.8841 6.66675 15 6.66675" fill="white"/>
<path d="M15 13.3334C15.8841 13.3334 16.7319 12.9822 17.357 12.3571C17.9821 11.732 18.3333 10.8841 18.3333 10.0001C18.3333 9.11603 17.9821 8.26818 17.357 7.64306C16.7319 7.01794 15.8841 6.66675 15 6.66675" stroke="white" stroke-width="2" stroke-linejoin="round"/>
<path d="M4.99984 6.66675C4.11578 6.66675 3.26794 7.01794 2.64281 7.64306C2.01769 8.26818 1.6665 9.11603 1.6665 10.0001C1.6665 10.8841 2.01769 11.732 2.64281 12.3571C3.26794 12.9822 4.11578 13.3334 4.99984 13.3334" fill="white"/>
<path d="M4.99984 6.66675C4.11578 6.66675 3.26794 7.01794 2.64281 7.64306C2.01769 8.26818 1.6665 9.11603 1.6665 10.0001C1.6665 10.8841 2.01769 11.732 2.64281 12.3571C3.26794 12.9822 4.11578 13.3334 4.99984 13.3334" stroke="white" stroke-width="2" stroke-linejoin="round"/>
<path d="M5 13.3334V6.66675C5 3.9055 7.23875 1.66675 10 1.66675C12.7612 1.66675 15 3.9055 15 6.66675V13.3334C15 16.0947 12.7612 18.3334 10 18.3334" stroke="white" stroke-width="2" stroke-linecap="round" stroke-linejoin="round"/>
</mask>
<g mask="url(#mask0_61_1242)">
<path d="M0 0H20V20H0V0Z" fill="#FB7268"/>
</g>
</svg>
