<svg width="20" height="20" viewBox="0 0 20 20" fill="none" xmlns="http://www.w3.org/2000/svg">
<path fill-rule="evenodd" clip-rule="evenodd" d="M2 0C0.895431 0 0 0.89543 0 2V7C0 8.10457 0.89543 9 2 9H7C8.10457 9 9 8.10457 9 7V2C9 0.895431 8.10457 0 7 0H2ZM2 11C0.895431 11 0 11.8954 0 13V18C0 19.1046 0.89543 20 2 20H7C8.10457 20 9 19.1046 9 18V13C9 11.8954 8.10457 11 7 11H2ZM11 2C11 0.89543 11.8954 0 13 0H18C19.1046 0 20 0.895431 20 2V7C20 8.10457 19.1046 9 18 9H13C11.8954 9 11 8.10457 11 7V2ZM15.5 20C17.9853 20 20 17.9853 20 15.5C20 13.0147 17.9853 11 15.5 11C13.0147 11 11 13.0147 11 15.5C11 17.9853 13.0147 20 15.5 20Z" fill="#FB7268"/>
</svg>
