<svg width="24" height="24" viewBox="0 0 24 24" fill="none" xmlns="http://www.w3.org/2000/svg">
<path d="M19.0934 4.93002C17.4526 3.27852 15.2871 2.25124 12.9701 2.02526C10.653 1.79929 8.32978 2.3888 6.40082 3.69215C4.47186 4.99551 3.05807 6.93103 2.4032 9.16503C1.74833 11.399 1.89341 13.7915 2.81343 15.93C2.90932 16.1288 2.94079 16.3525 2.90343 16.57L2.02343 20.8C1.98953 20.9622 1.99645 21.1303 2.04358 21.2891C2.09071 21.4479 2.17657 21.5926 2.29343 21.71C2.38924 21.8051 2.50331 21.8799 2.62877 21.9297C2.75423 21.9795 2.88848 22.0035 3.02343 22H3.22343L7.50343 21.14C7.72096 21.1139 7.94155 21.1449 8.14343 21.23C10.2819 22.15 12.6744 22.2951 14.9084 21.6403C17.1424 20.9854 19.0779 19.5716 20.3813 17.6426C21.6847 15.7137 22.2742 13.3904 22.0482 11.0734C21.8222 8.75638 20.7949 6.59081 19.1434 4.95002L19.0934 4.93002ZM8.02343 13C7.82565 13 7.63231 12.9414 7.46786 12.8315C7.30341 12.7216 7.17524 12.5654 7.09955 12.3827C7.02387 12.2 7.00406 11.9989 7.04265 11.8049C7.08123 11.611 7.17647 11.4328 7.31633 11.2929C7.45618 11.1531 7.63436 11.0578 7.82834 11.0192C8.02232 10.9807 8.22339 11.0005 8.40612 11.0761C8.58884 11.1518 8.74502 11.28 8.8549 11.4445C8.96478 11.6089 9.02343 11.8022 9.02343 12C9.02343 12.2652 8.91808 12.5196 8.73054 12.7071C8.543 12.8947 8.28865 13 8.02343 13ZM12.0234 13C11.8257 13 11.6323 12.9414 11.4679 12.8315C11.3034 12.7216 11.1752 12.5654 11.0996 12.3827C11.0239 12.2 11.0041 11.9989 11.0426 11.8049C11.0812 11.611 11.1765 11.4328 11.3163 11.2929C11.4562 11.1531 11.6344 11.0578 11.8283 11.0192C12.0223 10.9807 12.2234 11.0005 12.4061 11.0761C12.5888 11.1518 12.745 11.28 12.8549 11.4445C12.9648 11.6089 13.0234 11.8022 13.0234 12C13.0234 12.2652 12.9181 12.5196 12.7305 12.7071C12.543 12.8947 12.2887 13 12.0234 13ZM16.0234 13C15.8257 13 15.6323 12.9414 15.4679 12.8315C15.3034 12.7216 15.1752 12.5654 15.0996 12.3827C15.0239 12.2 15.0041 11.9989 15.0426 11.8049C15.0812 11.611 15.1765 11.4328 15.3163 11.2929C15.4562 11.1531 15.6344 11.0578 15.8283 11.0192C16.0223 10.9807 16.2234 11.0005 16.4061 11.0761C16.5888 11.1518 16.745 11.28 16.8549 11.4445C16.9648 11.6089 17.0234 11.8022 17.0234 12C17.0234 12.2652 16.9181 12.5196 16.7305 12.7071C16.543 12.8947 16.2887 13 16.0234 13Z" fill="#CCCCCC"/>
</svg>
