<svg width="20" height="16" viewBox="0 0 20 16" fill="none" xmlns="http://www.w3.org/2000/svg">
<path d="M19.0781 11.1656C19.1594 10.725 19.1594 10.275 19.0781 9.83438L19.8844 9.36875C19.9781 9.31562 20.0187 9.20625 19.9875 9.10312C19.7781 8.42812 19.4188 7.81562 18.95 7.30937C18.8781 7.23125 18.7625 7.2125 18.6688 7.26562L17.8625 7.73125C17.5219 7.44062 17.1313 7.21563 16.7094 7.06563V6.13438C16.7094 6.02813 16.6344 5.93437 16.5312 5.9125C15.8344 5.75625 15.125 5.7625 14.4625 5.9125C14.3594 5.93437 14.2844 6.02813 14.2844 6.13438V7.06563C13.8625 7.21563 13.4719 7.44062 13.1313 7.73125L12.325 7.26562C12.2344 7.2125 12.1156 7.23125 12.0437 7.30937C11.575 7.81562 11.2156 8.42812 11.0063 9.10312C10.975 9.20625 11.0188 9.31562 11.1094 9.36875L11.9156 9.83438C11.8344 10.275 11.8344 10.725 11.9156 11.1656L11.1094 11.6313C11.0156 11.6844 10.975 11.7938 11.0063 11.8969C11.2156 12.5719 11.575 13.1813 12.0437 13.6906C12.1156 13.7688 12.2312 13.7875 12.325 13.7344L13.1313 13.2688C13.4719 13.5594 13.8625 13.7844 14.2844 13.9344V14.8656C14.2844 14.9719 14.3594 15.0656 14.4625 15.0875C15.1594 15.2437 15.8687 15.2375 16.5312 15.0875C16.6344 15.0656 16.7094 14.9719 16.7094 14.8656V13.9344C17.1313 13.7844 17.5219 13.5594 17.8625 13.2688L18.6688 13.7344C18.7594 13.7875 18.8781 13.7688 18.95 13.6906C19.4188 13.1844 19.7781 12.5719 19.9875 11.8969C20.0187 11.7938 19.975 11.6844 19.8844 11.6313L19.0781 11.1656ZM15.5 12.0156C14.6625 12.0156 13.9844 11.3344 13.9844 10.5C13.9844 9.66562 14.6656 8.98438 15.5 8.98438C16.3344 8.98438 17.0156 9.66562 17.0156 10.5C17.0156 11.3344 16.3375 12.0156 15.5 12.0156ZM7 8.5C9.20938 8.5 11 6.70937 11 4.5C11 2.29063 9.20938 0.5 7 0.5C4.79063 0.5 3 2.29063 3 4.5C3 6.70937 4.79063 8.5 7 8.5ZM13.2875 14.5781C13.2156 14.5406 13.1438 14.4969 13.075 14.4563L12.8281 14.6C12.6406 14.7063 12.4281 14.7656 12.2156 14.7656C11.875 14.7656 11.5469 14.6219 11.3125 14.3719C10.7406 13.7531 10.3031 13 10.0562 12.1969C9.88437 11.6437 10.1156 11.0594 10.6156 10.7688L10.8625 10.625C10.8594 10.5437 10.8594 10.4625 10.8625 10.3813L10.6156 10.2375C10.1156 9.95 9.88437 9.3625 10.0562 8.80937C10.0844 8.71875 10.125 8.62813 10.1562 8.5375C10.0375 8.52813 9.92188 8.5 9.8 8.5H9.27812C8.58437 8.81875 7.8125 9 7 9C6.1875 9 5.41875 8.81875 4.72188 8.5H4.2C1.88125 8.5 0 10.3813 0 12.7V14C0 14.8281 0.671875 15.5 1.5 15.5H12.5C12.8156 15.5 13.1094 15.4 13.35 15.2344C13.3125 15.1156 13.2875 14.9938 13.2875 14.8656V14.5781Z" fill="#FB7268"/>
</svg>
