<svg width="20" height="20" viewBox="0 0 20 20" fill="none" xmlns="http://www.w3.org/2000/svg">
<path d="M11.8194 20H8.1794C7.95133 20 7.7301 19.9221 7.5524 19.7792C7.3747 19.6362 7.2512 19.4368 7.2024 19.214L6.7954 17.33C6.25245 17.0921 5.73763 16.7946 5.2604 16.443L3.4234 17.028C3.20596 17.0973 2.97135 17.0902 2.75852 17.0078C2.54569 16.9254 2.36745 16.7727 2.2534 16.575L0.429396 13.424C0.316541 13.2261 0.274179 12.9958 0.309238 12.7708C0.344298 12.5457 0.454705 12.3392 0.622396 12.185L2.0474 10.885C1.98259 10.2961 1.98259 9.70189 2.0474 9.113L0.622396 7.816C0.454467 7.66177 0.343911 7.45507 0.308845 7.22978C0.273779 7.00449 0.316285 6.77397 0.429396 6.576L2.2494 3.423C2.36345 3.22532 2.54169 3.07259 2.75452 2.99019C2.96735 2.90778 3.20196 2.90066 3.4194 2.97L5.2564 3.555C5.5004 3.375 5.7544 3.207 6.0164 3.055C6.2694 2.913 6.5294 2.784 6.7954 2.669L7.2034 0.787C7.25197 0.564198 7.37523 0.364688 7.55274 0.221549C7.73026 0.0784098 7.95136 0.000239966 8.1794 0H11.8194C12.0474 0.000239966 12.2685 0.0784098 12.446 0.221549C12.6236 0.364688 12.7468 0.564198 12.7954 0.787L13.2074 2.67C13.7496 2.90927 14.2643 3.20668 14.7424 3.557L16.5804 2.972C16.7977 2.90292 17.0321 2.91017 17.2447 2.99256C17.4573 3.07495 17.6354 3.22753 17.7494 3.425L19.5694 6.578C19.8014 6.985 19.7214 7.5 19.3764 7.817L17.9514 9.117C18.0162 9.70589 18.0162 10.3001 17.9514 10.889L19.3764 12.189C19.7214 12.507 19.8014 13.021 19.5694 13.428L17.7494 16.581C17.6353 16.7787 17.4571 16.9314 17.2443 17.0138C17.0314 17.0962 16.7968 17.1033 16.5794 17.034L14.7424 16.449C14.2655 16.8003 13.751 17.0975 13.2084 17.335L12.7954 19.214C12.7466 19.4366 12.6233 19.6359 12.4458 19.7788C12.2683 19.9218 12.0473 19.9998 11.8194 20ZM9.9954 6C8.93453 6 7.91711 6.42143 7.16697 7.17157C6.41682 7.92172 5.9954 8.93913 5.9954 10C5.9954 11.0609 6.41682 12.0783 7.16697 12.8284C7.91711 13.5786 8.93453 14 9.9954 14C11.0563 14 12.0737 13.5786 12.8238 12.8284C13.574 12.0783 13.9954 11.0609 13.9954 10C13.9954 8.93913 13.574 7.92172 12.8238 7.17157C12.0737 6.42143 11.0563 6 9.9954 6Z" fill="#FB7268"/>
</svg>
