<svg width="20" height="20" viewBox="0 0 20 20" fill="none" xmlns="http://www.w3.org/2000/svg">
<path fill-rule="evenodd" clip-rule="evenodd" d="M4 0C1.79086 0 0 1.79086 0 4V16C0 18.2091 1.79086 20 4 20H16C18.2091 20 20 18.2091 20 16V4C20 1.79086 18.2091 0 16 0H4ZM15.1924 13.7782C15.5829 14.1687 15.5829 14.8019 15.1924 15.1924C14.8019 15.5829 14.1687 15.5829 13.7782 15.1924L10.2432 11.6575L6.70726 15.1934C6.31673 15.584 5.68357 15.584 5.29304 15.1934C4.90252 14.8029 4.90252 14.1698 5.29304 13.7792L8.82903 10.2432L5.29289 6.70711C4.90237 6.31658 4.90237 5.68342 5.29289 5.29289C5.68342 4.90237 6.31658 4.90237 6.70711 5.29289L10.2432 8.82903L13.7783 5.29395C14.1688 4.90343 14.802 4.90343 15.1925 5.29395C15.5831 5.68448 15.5831 6.31764 15.1925 6.70817L11.6575 10.2432L15.1924 13.7782Z" fill="#FB7268"/>
</svg>
