<svg width="20" height="16" viewBox="0 0 20 16" fill="none" xmlns="http://www.w3.org/2000/svg">
<g clip-path="url(#clip0_394_2830)">
<path d="M15.5 7C13.0125 7 11 9.0125 11 11.5C11 13.9875 13.0125 16 15.5 16C17.9875 16 20 13.9875 20 11.5C20 9.0125 17.9875 7 15.5 7ZM10 11.5C10 10.6313 10.2094 9.80937 10.5688 9.07812C10.3188 9.03125 10.0625 9 9.8 9H9.27812C8.58437 9.31875 7.8125 9.5 7 9.5C6.1875 9.5 5.41875 9.31875 4.72188 9H4.2C1.88125 9 0 10.8813 0 13.2V14.5C0 15.3281 0.671875 16 1.5 16H12.3469C10.9313 15.0031 10 13.3594 10 11.5ZM7 8C9.20938 8 11 6.20937 11 4C11 1.79063 9.20938 0 7 0C4.79063 0 3 1.79063 3 4C3 6.20937 4.79063 8 7 8Z" fill="#FB7268"/>
<path d="M17.8384 10.7606L16.3395 10.5325L15.6694 9.11004C15.6511 9.0711 15.621 9.03957 15.5838 9.0204C15.4906 8.97218 15.3772 9.01237 15.3306 9.11004L14.6605 10.5325L13.1616 10.7606C13.1203 10.7668 13.0825 10.7872 13.0536 10.8181C13.0186 10.8558 12.9994 10.9064 13 10.9589C13.0007 11.0114 13.0212 11.0615 13.0571 11.0982L14.1416 12.2054L13.8854 13.7688C13.8794 13.8052 13.8832 13.8426 13.8965 13.8768C13.9098 13.911 13.9319 13.9406 13.9604 13.9623C13.9889 13.984 14.0227 13.9969 14.0578 13.9995C14.093 14.0021 14.1282 13.9944 14.1593 13.9771L15.5 13.239L16.8407 13.9771C16.8773 13.9975 16.9198 14.0043 16.9605 13.9969C17.0633 13.9784 17.1323 13.8764 17.1146 13.7688L16.8584 12.2054L17.9429 11.0982C17.9724 11.0679 17.9919 11.0283 17.9978 10.985C18.0137 10.8769 17.9417 10.7767 17.8384 10.7606Z" fill="white"/>
</g>
<defs>
<clipPath id="clip0_394_2830">
<rect width="20" height="16" fill="white"/>
</clipPath>
</defs>
</svg>
