<svg width="18" height="17" viewBox="0 0 18 17" fill="none" xmlns="http://www.w3.org/2000/svg">
<path d="M13.6331 16.5001C13.4999 16.5006 13.3684 16.4692 13.2498 16.4084L8.9998 14.1834L4.7498 16.4084C4.6118 16.481 4.4562 16.5134 4.3007 16.5019C4.1452 16.4905 3.99603 16.4356 3.87016 16.3436C3.74429 16.2516 3.64675 16.1261 3.58865 15.9814C3.53054 15.8367 3.5142 15.6786 3.54147 15.5251L4.3748 10.8334L0.941469 7.50009C0.83435 7.39319 0.758362 7.25915 0.721659 7.11233C0.684955 6.96552 0.688923 6.81148 0.733135 6.66676C0.781435 6.51865 0.870282 6.38705 0.989594 6.28689C1.10891 6.18672 1.2539 6.12201 1.40814 6.10009L6.15814 5.40842L8.2498 1.13342C8.31804 0.992529 8.42458 0.873707 8.55723 0.790567C8.68987 0.707426 8.84325 0.66333 8.9998 0.66333C9.15635 0.66333 9.30973 0.707426 9.44238 0.790567C9.57502 0.873707 9.68156 0.992529 9.7498 1.13342L11.8665 5.40009L16.6165 6.09176C16.7707 6.11368 16.9157 6.17839 17.035 6.27855C17.1543 6.37872 17.2432 6.51032 17.2915 6.65842C17.3357 6.80315 17.3396 6.95719 17.3029 7.104C17.2662 7.25081 17.1903 7.38486 17.0831 7.49175L13.6498 10.8251L14.4831 15.5168C14.5129 15.673 14.4973 15.8345 14.4382 15.9821C14.3792 16.1298 14.2791 16.2575 14.1498 16.3501C13.9989 16.4558 13.8172 16.5086 13.6331 16.5001V16.5001Z" fill="#FB7268"/>
</svg>
