<svg width="20" height="16" viewBox="0 0 20 16" fill="none" xmlns="http://www.w3.org/2000/svg">
<path d="M0 2.66667C0 1.95942 0.263392 1.28115 0.732233 0.781048C1.20107 0.280951 1.83696 0 2.5 0H17.5C18.163 0 18.7989 0.280951 19.2678 0.781048C19.7366 1.28115 20 1.95942 20 2.66667V9.33333H0V2.66667ZM14.375 4C14.2092 4 14.0503 4.07024 13.9331 4.19526C13.8158 4.32029 13.75 4.48986 13.75 4.66667V6C13.75 6.17681 13.8158 6.34638 13.9331 6.4714C14.0503 6.59643 14.2092 6.66667 14.375 6.66667H16.875C17.0408 6.66667 17.1997 6.59643 17.3169 6.4714C17.4342 6.34638 17.5 6.17681 17.5 6V4.66667C17.5 4.48986 17.4342 4.32029 17.3169 4.19526C17.1997 4.07024 17.0408 4 16.875 4H14.375ZM0 12V13.3333C0 14.0406 0.263392 14.7189 0.732233 15.219C1.20107 15.719 1.83696 16 2.5 16H17.5C18.163 16 18.7989 15.719 19.2678 15.219C19.7366 14.7189 20 14.0406 20 13.3333V12H0Z" fill="#FB7268"/>
</svg>
