<svg width="20" height="20" viewBox="0 0 20 20" fill="none" xmlns="http://www.w3.org/2000/svg">
<path fill-rule="evenodd" clip-rule="evenodd" d="M15.75 0H14.25L14.0384 1.37538C13.7161 1.46088 13.4066 1.589 13.1182 1.7563L11.999 0.93554L10.9384 1.9962L11.7585 3.11452C11.5901 3.40398 11.4612 3.71475 11.3754 4.0384L10 4.25V5.75L11.3433 5.95667L11.6284 5.67157L14.4569 8.5L14.0776 8.87927L14.25 10H15.75L15.9616 8.62463C16.2848 8.53886 16.5952 8.41023 16.8843 8.2422L18.0094 9.06727L19.0701 8.00661L18.2444 6.88061C18.4113 6.59253 18.5392 6.28343 18.6246 5.9616L20 5.75V4.25L18.6246 4.0384C18.539 3.7156 18.4106 3.40561 18.2429 3.11679L19.0641 1.99696L18.0034 0.936295L16.8837 1.75743C16.5947 1.58958 16.2846 1.46107 15.9616 1.37538L15.75 0ZM15 3.25C14.5754 3.25 14.1667 3.40431 13.8489 3.68187L13.6819 3.84889C13.4043 4.1667 13.25 4.5754 13.25 5C13.25 5.46413 13.4344 5.90925 13.7626 6.23744C14.0908 6.56563 14.5359 6.75 15 6.75C15.4641 6.75 15.9092 6.56563 16.2374 6.23744C16.5656 5.90925 16.75 5.46413 16.75 5C16.75 4.56895 16.591 4.15429 16.3054 3.83447L16.1655 3.69461C15.8457 3.40903 15.4311 3.25 15 3.25ZM5.95 6H8.05L8.34624 7.92553C8.7977 8.04531 9.23127 8.22484 9.63526 8.45929L11.2059 7.30747L12.6908 8.7924L11.5394 10.3625C11.7745 10.7671 11.9545 11.2015 12.0745 11.6538L14 11.95V14.05L12.0745 14.3462C11.9547 14.7977 11.7752 15.2313 11.5407 15.6353L12.6925 17.2059L11.2076 18.6908L9.63749 17.5394C9.23286 17.7745 8.79853 17.9545 8.34624 18.0745L8.05 20H5.95L5.65377 18.0745C5.20155 17.9545 4.76729 17.7746 4.36273 17.5395L2.79134 18.6919L1.30642 17.207L2.45916 15.635C2.22478 15.2311 2.04529 14.7976 1.92552 14.3462L0 14.05V11.95L1.92553 11.6538C2.04551 11.2015 2.22544 10.7673 2.46046 10.3627L1.30811 8.79134L2.79303 7.30642L4.36496 8.45916C4.76888 8.22478 5.20238 8.04529 5.65377 7.92553L5.95 6ZM5.26759 11.2676C5.72705 10.8081 6.35022 10.55 7 10.55C7.62957 10.55 8.23416 10.7923 8.68907 11.2253L8.7747 11.3109C9.20768 11.7658 9.45 12.3704 9.45 13C9.45 13.6296 9.20768 14.2342 8.77469 14.6891L8.68908 14.7747C8.23416 15.2077 7.62957 15.45 7 15.45C6.35022 15.45 5.72705 15.1919 5.26759 14.7324C4.80812 14.2729 4.55 13.6498 4.55 13C4.55 12.3502 4.80812 11.7271 5.26759 11.2676Z" fill="#FB7268"/>
</svg>
