<svg width="20" height="20" viewBox="0 0 20 20" fill="none" xmlns="http://www.w3.org/2000/svg">
<path fill-rule="evenodd" clip-rule="evenodd" d="M2 0C1.46957 0 0.960859 0.217529 0.585786 0.604735C0.210714 0.99194 0 1.5171 0 2.06469V14.4529C0 15.0004 0.210714 15.5256 0.585786 15.9128C0.960859 16.3 1.46957 16.5175 2 16.5175H7.68661C7.87827 16.5175 8.05306 16.6271 8.13661 16.7996L9.55 19.7178C9.73214 20.0939 10.2679 20.0939 10.45 19.7178L11.8634 16.7996C11.9469 16.6271 12.1217 16.5175 12.3134 16.5175H18C18.5304 16.5175 19.0391 16.3 19.4142 15.9128C19.7893 15.5256 20 15.0004 20 14.4529V2.06469C20 1.5171 19.7893 0.99194 19.4142 0.604735C19.0391 0.217529 18.5304 0 18 0H10H2ZM7.22215 3.84265C8.0444 3.29324 9.0111 3 10 3C11.3253 3.00254 12.5956 3.53014 13.5327 4.46727C14.4699 5.4044 14.9975 6.6747 15 8C15 8.9889 14.7068 9.9556 14.1573 10.7778C13.6079 11.6001 12.827 12.241 11.9134 12.6194C10.9998 12.9978 9.99446 13.0969 9.02455 12.9039C8.05465 12.711 7.16373 12.2348 6.46447 11.5355C5.76521 10.8363 5.289 9.94536 5.09608 8.97545C4.90315 8.00555 5.00217 7.00021 5.3806 6.08658C5.75904 5.17295 6.39991 4.39206 7.22215 3.84265ZM12.5838 6.12198C12.4648 6.04245 12.3249 6 12.1817 6C11.9898 6 11.8057 6.07625 11.67 6.21199C11.5342 6.34772 11.458 6.53181 11.458 6.72376C11.458 6.86691 11.5004 7.00684 11.58 7.12587C11.6595 7.24489 11.7725 7.33766 11.9048 7.39244C12.037 7.44722 12.1825 7.46155 12.3229 7.43362C12.4633 7.4057 12.5923 7.33676 12.6935 7.23554C12.7947 7.13432 12.8637 7.00536 12.8916 6.86496C12.9195 6.72457 12.9052 6.57904 12.8504 6.44679C12.7956 6.31454 12.7029 6.2015 12.5838 6.12198ZM8.24126 6.12198C8.12224 6.04245 7.9823 6 7.83916 6C7.6472 6 7.46311 6.07625 7.32738 6.21199C7.19165 6.34772 7.11539 6.53181 7.11539 6.72376C7.11539 6.86691 7.15784 7.00684 7.23737 7.12587C7.3169 7.24489 7.42993 7.33766 7.56218 7.39244C7.69443 7.44722 7.83996 7.46155 7.98036 7.43362C8.12075 7.4057 8.24971 7.33676 8.35093 7.23554C8.45216 7.13432 8.52109 7.00536 8.54901 6.86496C8.57694 6.72457 8.56261 6.57904 8.50783 6.44679C8.45305 6.31454 8.36028 6.2015 8.24126 6.12198ZM12.5195 10.6643C12.6045 10.6649 12.688 10.642 12.7608 10.5979C12.8708 10.5337 12.951 10.4284 12.9838 10.3053C13.0165 10.1821 12.9993 10.051 12.9357 9.94049C12.6392 9.42697 12.2129 9.00052 11.6994 8.70403C11.1859 8.40753 10.6034 8.25144 10.0104 8.25144C9.41751 8.25144 8.83502 8.40753 8.32153 8.70403C7.80804 9.00052 7.38166 9.42697 7.08524 9.94049C7.04747 9.99528 7.02145 10.0573 7.0088 10.1226C6.99615 10.1879 6.99715 10.2552 7.01173 10.3201C7.02631 10.385 7.05417 10.4462 7.09354 10.4998C7.13291 10.5535 7.18295 10.5984 7.24052 10.6318C7.29808 10.6651 7.36193 10.6862 7.42804 10.6938C7.49415 10.7013 7.5611 10.695 7.62469 10.6754C7.68827 10.6558 7.74711 10.6233 7.79751 10.5798C7.84792 10.5364 7.88879 10.483 7.91756 10.423C8.13006 10.0561 8.43527 9.75153 8.8026 9.53979C9.16993 9.32805 9.58646 9.21659 10.0104 9.21659C10.4344 9.21659 10.851 9.32805 11.2183 9.53979C11.5856 9.75153 11.8908 10.0561 12.1033 10.423C12.1441 10.4974 12.2044 10.5592 12.2777 10.6017C12.3511 10.6442 12.4347 10.6659 12.5195 10.6643Z" fill="#FB7268"/>
</svg>
