<svg width="24" height="24" viewBox="0 0 24 24" fill="none" xmlns="http://www.w3.org/2000/svg">
<path d="M20.7043 19.2848L17.3054 15.8958C18.402 14.4988 18.9971 12.7735 18.9948 10.9974C18.9948 9.41569 18.5258 7.86947 17.647 6.5543C16.7683 5.23913 15.5192 4.21408 14.0579 3.60877C12.5966 3.00347 10.9886 2.84509 9.43721 3.15367C7.88586 3.46225 6.46085 4.22393 5.34239 5.34239C4.22393 6.46085 3.46225 7.88586 3.15367 9.43721C2.84509 10.9886 3.00347 12.5966 3.60877 14.0579C4.21408 15.5192 5.23913 16.7683 6.5543 17.647C7.86947 18.5258 9.41569 18.9948 10.9974 18.9948C12.7735 18.9971 14.4988 18.402 15.8958 17.3054L19.2848 20.7043C19.3777 20.798 19.4883 20.8724 19.6101 20.9231C19.7319 20.9739 19.8626 21 19.9945 21C20.1265 21 20.2572 20.9739 20.379 20.9231C20.5008 20.8724 20.6114 20.798 20.7043 20.7043C20.798 20.6114 20.8724 20.5008 20.9231 20.379C20.9739 20.2572 21 20.1265 21 19.9945C21 19.8626 20.9739 19.7319 20.9231 19.6101C20.8724 19.4883 20.798 19.3777 20.7043 19.2848V19.2848ZM4.99936 10.9974C4.99936 9.81112 5.35114 8.65146 6.01022 7.66508C6.66929 6.6787 7.60606 5.90991 8.70207 5.45593C9.79807 5.00196 11.0041 4.88317 12.1676 5.11461C13.3311 5.34605 14.3999 5.91731 15.2387 6.75615C16.0775 7.595 16.6488 8.66375 16.8802 9.82726C17.1117 10.9908 16.9929 12.1968 16.5389 13.2928C16.0849 14.3888 15.3162 15.3256 14.3298 15.9846C13.3434 16.6437 12.1837 16.9955 10.9974 16.9955C9.40664 16.9955 7.88101 16.3636 6.75615 15.2387C5.6313 14.1138 4.99936 12.5882 4.99936 10.9974Z" fill="#FB7268" stroke="#FB7268"/>
</svg>
