<svg width="24" height="24" viewBox="0 0 24 24" fill="none" xmlns="http://www.w3.org/2000/svg">
<path d="M12 22C13.1571 22 14.1857 21.25 14.4429 20.125C14.5714 19.75 14.3143 19.5 13.9286 19.5H10.0714C9.68571 19.5 9.42857 19.75 9.55714 20.125C9.81429 21.25 10.8429 22 12 22ZM5.57143 8.25C5.57143 4.75 8.4 2 12 2C15.6 2 18.4286 4.75 18.4286 8.25V12L20.6143 15.25C20.8714 15.5 21 15.875 21 16.25C21 17.25 20.1 18.125 19.0714 18.125H4.92857C3.9 18.25 3 17.375 3 16.375C3 16 3.12857 15.625 3.38571 15.375L5.57143 12.125V8.25Z" fill="#CCCCCC"/>
</svg>
