<svg width="20" height="20" viewBox="0 0 20 20" fill="none" xmlns="http://www.w3.org/2000/svg">
<circle cx="10" cy="10" r="10" fill="#CCCCCC"/>
<path d="M10.5096 15.918C11.0816 15.896 11.7856 15.764 12.3356 15.522C13.0396 15.192 13.6556 14.774 14.0956 14.07C14.9096 12.684 14.4696 11.298 13.8536 10.55C13.4356 10.022 12.7536 9.516 10.7076 8.834L9.91561 8.548C9.56361 8.438 9.29961 8.284 9.01361 8.086C8.81561 7.954 8.66161 7.822 8.59561 7.69C8.46361 7.492 8.41961 7.272 8.59561 6.986C8.83761 6.656 9.25561 6.546 9.73961 6.524C10.3556 6.546 11.1476 6.678 11.8296 7.162C11.9396 7.25 12.0276 7.338 12.0936 7.426L14.1616 5.908C13.9416 5.6 13.6336 5.314 13.3036 5.05C12.1156 4.17 10.6636 3.972 9.73961 3.994C8.70561 4.038 7.09961 4.39 6.35161 5.776C5.69161 7.074 5.99961 8.504 6.65961 9.318C6.79161 9.516 7.14361 9.912 7.62761 10.22C8.04561 10.506 8.30961 10.66 8.94761 10.902L9.76161 11.21C11.3016 11.76 11.4996 11.804 11.8076 12.046C12.0496 12.222 12.1156 12.508 11.8956 12.816C11.7636 12.992 11.5876 13.102 11.3456 13.19C11.0816 13.3 10.8396 13.366 10.5316 13.388C9.71761 13.388 9.23361 13.234 8.41961 12.684C7.95761 12.354 7.73761 11.958 7.60561 11.672L5.42761 12.86C5.66961 13.322 6.21961 14.29 6.98961 14.862C8.11161 15.632 9.23361 15.962 10.5096 15.918Z" fill="white"/>
</svg>
