<svg width="20" height="16" viewBox="0 0 20 16" fill="none" xmlns="http://www.w3.org/2000/svg">
<path fill-rule="evenodd" clip-rule="evenodd" d="M11 11.3039C11 8.70834 13.0125 6.60843 15.5 6.60843C17.9875 6.60843 20 8.70834 20 11.3039C20 13.8994 17.9875 15.9993 15.5 15.9993C13.0125 15.9993 11 13.8994 11 11.3039ZM10.5688 8.77682C10.2094 9.53983 10 10.3974 10 11.3039C10 13.244 10.9313 14.9592 12.3469 15.9993H1.5C0.671875 15.9993 0 15.2983 0 14.4342V13.0777C0 10.6583 1.88125 8.6953 4.2 8.6953H4.72188C5.41875 9.02789 6.1875 9.21702 7 9.21702C7.8125 9.21702 8.58437 9.02789 9.27812 8.6953H9.8C10.0625 8.6953 10.3188 8.72791 10.5688 8.77682ZM11 4.17374C11 6.47908 9.20938 8.34749 7 8.34749C4.79063 8.34749 3 6.47908 3 4.17374C3 1.8684 4.79063 0 7 0C9.20938 0 11 1.8684 11 4.17374ZM15 9.19664C15 8.9205 15.2239 8.69664 15.5 8.69664C15.7761 8.69664 16 8.9205 16 9.19664V10.7835H17.4783C17.7664 10.7835 18 11.0171 18 11.3052C18 11.5934 17.7664 11.827 17.4783 11.827H16V13.4138C16 13.69 15.7761 13.9138 15.5 13.9138C15.2239 13.9138 15 13.69 15 13.4138V11.827H13.5217C13.2336 11.827 13 11.5934 13 11.3052C13 11.0171 13.2336 10.7835 13.5217 10.7835H15V9.19664Z" fill="#FB7268"/>
</svg>
