<svg width="20" height="18" viewBox="0 0 20 18" fill="none" xmlns="http://www.w3.org/2000/svg">
<path fill-rule="evenodd" clip-rule="evenodd" d="M4.25791 0.841152L0.251406 5.25453C0.0869369 5.43195 -0.00317958 5.66733 8.57367e-05 5.91095C0.00335106 6.15456 0.0997428 6.38736 0.268906 6.56017L9.62491 17.3281C9.67183 17.3822 9.72953 17.4254 9.79419 17.455C9.85884 17.4847 9.92897 17.5 9.99991 17.5C10.0708 17.5 10.141 17.4847 10.2056 17.455C10.2703 17.4254 10.328 17.3822 10.3749 17.3281L19.7309 6.56017C19.9001 6.38736 19.9965 6.15456 19.9997 5.91095C20.003 5.66733 19.9129 5.43195 19.7484 5.25453L15.7419 0.841152C15.6416 0.732634 15.5202 0.646322 15.3855 0.587622C15.2507 0.528923 15.1055 0.4991 14.9589 0.500021H5.04091C4.89429 0.4991 4.74907 0.528923 4.61434 0.587622C4.47961 0.646322 4.35826 0.732634 4.25791 0.841152ZM8.7345 4.98345H9.6255L7.9315 9.15245H7.0075L5.253 4.98345H6.144L7.486 8.15145L8.7345 4.98345ZM10.1215 9.15245V4.98345H10.9575V9.15245H10.1215ZM12.488 7.04045H13.522C13.8465 7.04045 14.1105 6.76545 14.1105 6.44095C14.1105 6.11645 13.8465 5.85245 13.522 5.85245H12.488V7.04045ZM12.488 9.15245H11.6575V4.98345H13.4945C14.303 4.98345 14.9465 5.63245 14.9465 6.44095C14.9465 7.23845 14.303 7.89845 13.4945 7.89845H12.488V9.15245Z" fill="#FB7268"/>
</svg>
