<svg width="20" height="18" viewBox="0 0 20 18" fill="none" xmlns="http://www.w3.org/2000/svg">
<path fill-rule="evenodd" clip-rule="evenodd" d="M10 8C12.2091 8 14 6.20914 14 4C14 1.79086 12.2091 0 10 0C7.79086 0 6 1.79086 6 4C6 6.20914 7.79086 8 10 8ZM3 8C4.10457 8 5 7.10457 5 6C5 4.89543 4.10457 4 3 4C1.89543 4 1 4.89543 1 6C1 7.10457 1.89543 8 3 8ZM5 13C5 10.7909 6.79086 9 9 9H11C13.2091 9 15 10.7909 15 13V17C15 17.5523 14.5523 18 14 18H6C5.44772 18 5 17.5523 5 17V13ZM0 12C0 10.3431 1.34315 9 3 9C3.91694 9 4.73781 9.41138 5.28809 10.0596C4.49607 10.7905 4 11.8373 4 13V17H1C0.447715 17 0 16.5523 0 16V12ZM15 6C15 7.10457 15.8954 8 17 8C18.1046 8 19 7.10457 19 6C19 4.89543 18.1046 4 17 4C15.8954 4 15 4.89543 15 6ZM20 12.0335C20 10.3582 18.6418 9 16.9665 9C16.0461 9 15.2214 9.40992 14.6651 10.0572C15.4587 10.7881 15.9558 11.836 15.9558 13V17H19C19.5523 17 20 16.5523 20 16V12.0335Z" fill="#FB7268"/>
</svg>
