<svg width="18" height="18" viewBox="0 0 18 18" fill="none" xmlns="http://www.w3.org/2000/svg">
<path d="M1.49984 15.6667V6.25008C1.26373 6.0973 1.06595 5.90286 0.906504 5.66675C0.746504 5.43064 0.666504 5.15286 0.666504 4.83342V2.33341C0.666504 1.87508 0.829837 1.48258 1.1565 1.15591C1.48262 0.829804 1.87484 0.666748 2.33317 0.666748H15.6665C16.1248 0.666748 16.5173 0.829804 16.844 1.15591C17.1701 1.48258 17.3332 1.87508 17.3332 2.33341V4.83342C17.3332 5.15286 17.2532 5.43064 17.0932 5.66675C16.9337 5.90286 16.7359 6.0973 16.4998 6.25008V15.6667C16.4998 16.1251 16.3368 16.5176 16.0107 16.8442C15.684 17.1704 15.2915 17.3334 14.8332 17.3334H3.1665C2.70817 17.3334 2.31567 17.1704 1.989 16.8442C1.66289 16.5176 1.49984 16.1251 1.49984 15.6667ZM15.6665 4.83342V2.33341H2.33317V4.83342H15.6665ZM6.49984 10.6667H11.4998V9.00008H6.49984V10.6667Z" fill="#FB7268"/>
</svg>
