<svg width="20" height="20" viewBox="0 0 20 20" fill="none" xmlns="http://www.w3.org/2000/svg">
<path fill-rule="evenodd" clip-rule="evenodd" d="M18 0H10H2C1.46957 0 0.960859 0.217529 0.585786 0.604735C0.210714 0.99194 0 1.5171 0 2.06469V14.4529C0 15.0004 0.210714 15.5256 0.585786 15.9128C0.960859 16.3 1.46957 16.5175 2 16.5175H7.68661C7.87827 16.5175 8.05306 16.6271 8.13661 16.7996L9.55 19.7178C9.73214 20.0939 10.2679 20.0939 10.45 19.7178L11.8634 16.7996C11.9469 16.6271 12.1217 16.5175 12.3134 16.5175H18C18.5304 16.5175 19.0391 16.3 19.4142 15.9128C19.7893 15.5256 20 15.0004 20 14.4529V2.06469C20 1.5171 19.7893 0.99194 19.4142 0.604735C19.0391 0.217529 18.5304 0 18 0ZM6 6.31678C6 7.48431 6.89733 8.43443 8 8.43443H7.11111C5.39556 8.43443 4 9.91255 4 11.7285V12.1991H11.5556H12V11.7285C12 9.91255 10.604 8.43443 8.88889 8.43443H8C9.10267 8.43443 10 7.48431 10 6.31678C10 5.14925 9.10267 4.19913 8 4.19913C6.89733 4.19913 6 5.14925 6 6.31678ZM14.464 5.2H15.528V11.024H14.464V6.368L13.616 6.664L13.264 5.632L14.464 5.2Z" fill="#FB7268"/>
</svg>
