<svg width="48" height="48" viewBox="0 0 48 48" fill="none" xmlns="http://www.w3.org/2000/svg">
<rect width="48" height="48" rx="24" fill="#1877F2"/>
<path d="M44 24.1222C44 13.0091 35.0456 4 24 4C12.9544 4 4 13.0089 4 24.1222C4 34.1657 11.3137 42.4905 20.875 44V29.9388H15.7969V24.1222H20.875V19.689C20.875 14.6459 23.8609 11.8602 28.4292 11.8602C30.6175 11.8602 32.9062 12.2533 32.9062 12.2533V17.2052H30.3844C27.8997 17.2052 27.125 18.7564 27.125 20.3477V24.1222H32.6719L31.7852 29.9388H27.125V44C36.6862 42.4905 44 34.1659 44 24.1222Z" fill="#1877F2"/>
<path d="M29.2137 25.3981L29.8356 21.0874H25.9452V18.2901C25.9452 17.1106 26.4887 15.9612 28.2312 15.9612H30V12.2913C30 12.2913 28.3947 12 26.8599 12C23.6559 12 21.5616 14.0645 21.5616 17.8019V21.0874H18V25.3981H21.5616V35.8188C22.2867 35.9396 23.0195 36.0002 23.7534 36C24.4873 36.0002 25.2201 35.9397 25.9452 35.8188V25.3981H29.2137Z" fill="white"/>
</svg>
