<svg width="24" height="24" viewBox="0 0 24 24" fill="none" xmlns="http://www.w3.org/2000/svg">
<rect width="24" height="24" rx="12" fill="black"/>
<path d="M15.0245 11.5489C15.0193 10.6882 15.4172 10.0396 16.2206 9.56128C15.7712 8.93029 15.0914 8.58325 14.1953 8.51637C13.3468 8.45075 12.4185 9.00096 12.0785 9.00096C11.7193 9.00096 10.8979 8.53908 10.2515 8.53908C8.9176 8.55928 7.5 9.58147 7.5 11.6612C7.5 12.2758 7.61459 12.9105 7.84378 13.5642C8.15021 14.4249 9.25494 16.5337 10.4073 16.4996C11.0099 16.4857 11.4361 16.0806 12.2202 16.0806C12.9811 16.0806 13.3751 16.4996 14.0472 16.4996C15.2099 16.4832 16.209 14.5663 16.5 13.7031C14.9408 12.9825 15.0245 11.5931 15.0245 11.5489ZM13.6712 7.69987C14.324 6.94017 14.2648 6.24861 14.2455 6C13.6687 6.03281 13.0017 6.3849 12.6219 6.81776C12.2034 7.28216 11.9575 7.85636 12.0103 8.50375C12.6335 8.55044 13.2026 8.23621 13.6712 7.69987Z" fill="white"/>
</svg>
