<svg width="18" height="20" viewBox="0 0 18 20" fill="none" xmlns="http://www.w3.org/2000/svg">
<path d="M7.55 0.529535C7.95577 0.187557 8.46935 0 9 0C9.53065 0 10.0442 0.187557 10.45 0.529535L17.2 6.22453C17.708 6.65154 18 7.28054 18 7.94454V17.7465C18 18.2107 17.8156 18.6558 17.4874 18.984C17.1592 19.3122 16.7141 19.4965 16.25 19.4965H13.25C12.7859 19.4965 12.3408 19.3122 12.0126 18.984C11.6844 18.6558 11.5 18.2107 11.5 17.7465V12.7465C11.5 12.5476 11.421 12.3569 11.2803 12.2162C11.1397 12.0756 10.9489 11.9965 10.75 11.9965H7.25C7.05109 11.9965 6.86032 12.0756 6.71967 12.2162C6.57902 12.3569 6.5 12.5476 6.5 12.7465V17.7465C6.5 18.2107 6.31563 18.6558 5.98744 18.984C5.65925 19.3122 5.21413 19.4965 4.75 19.4965H1.75C1.52019 19.4965 1.29262 19.4513 1.0803 19.3633C0.867984 19.2754 0.675066 19.1465 0.512563 18.984C0.350061 18.8215 0.221157 18.6286 0.133211 18.4162C0.0452652 18.2039 0 17.9763 0 17.7465V7.94353C0 7.28053 0.292 6.65154 0.8 6.22354L7.55 0.529535Z" fill="#CCCCCC"/>
</svg>
