<svg width="20" height="20" viewBox="0 0 20 20" fill="none" xmlns="http://www.w3.org/2000/svg">
<path d="M15.773 13.8674L18.9565 17.0415C18.9566 17.0416 18.9567 17.0418 18.9569 17.0419L18.9571 17.0422L18.71 17.29C18.8037 17.383 18.8781 17.4936 18.9289 17.6154C18.9797 17.7373 19.0058 17.868 19.0058 18C19.0058 18.132 18.9797 18.2627 18.9289 18.3846C18.8781 18.5064 18.8037 18.617 18.71 18.71L15.773 13.8674ZM15.773 13.8674C16.7985 12.4545 17.3522 10.7507 17.35 8.99957M15.773 13.8674L17 9M8.99957 17.35C10.7507 17.3522 12.4545 16.7985 13.8674 15.773L17.0415 18.9565L17.29 18.71L17.0422 18.9571L17.0419 18.9569C17.1673 19.0832 17.3165 19.1835 17.4808 19.252C17.6453 19.3205 17.8218 19.3558 18 19.3558C18.1782 19.3558 18.3547 19.3205 18.5192 19.252C18.6833 19.1836 18.8322 19.0835 18.9575 18.9575L9 17M8.99957 17.35L9 17M8.99957 17.35C8.99971 17.35 8.99986 17.35 9 17.35V17M8.99957 17.35C7.34825 17.3499 5.73402 16.8602 4.36099 15.9428C2.98784 15.0253 1.9176 13.7212 1.28561 12.1954C0.653618 10.6696 0.48826 8.99074 0.810447 7.371C1.13263 5.75126 1.92789 4.26343 3.09566 3.09566C4.26343 1.92789 5.75126 1.13263 7.371 0.810447C8.99074 0.48826 10.6696 0.653618 12.1954 1.28561C13.7212 1.9176 15.0253 2.98784 15.9428 4.36099C16.8602 5.73402 17.3499 7.34825 17.35 8.99957M9 17C7.41775 17 5.87103 16.5308 4.55544 15.6518C3.23985 14.7727 2.21447 13.5233 1.60897 12.0615C1.00347 10.5997 0.84504 8.99113 1.15372 7.43928C1.4624 5.88743 2.22433 4.46197 3.34315 3.34315C4.46197 2.22433 5.88743 1.4624 7.43928 1.15372C8.99113 0.84504 10.5997 1.00347 12.0615 1.60897C13.5233 2.21447 14.7727 3.23985 15.6518 4.55544C16.5308 5.87103 17 7.41775 17 9M17.35 8.99957L17 9M17.35 8.99957C17.35 8.99971 17.35 8.99986 17.35 9H17M3.35 9C3.35 7.88254 3.68137 6.79017 4.3022 5.86103C4.92303 4.93189 5.80544 4.20772 6.83784 3.78008C7.87024 3.35245 9.00627 3.24056 10.1023 3.45857C11.1983 3.67657 12.205 4.21468 12.9952 5.00485C13.7853 5.79502 14.3234 6.80175 14.5414 7.89774C14.7594 8.99374 14.6476 10.1298 14.2199 11.1622C13.7923 12.1946 13.0681 13.077 12.139 13.6978C11.2098 14.3186 10.1175 14.65 9 14.65C7.50153 14.65 6.06443 14.0547 5.00485 12.9952C3.94527 11.9356 3.35 10.4985 3.35 9Z" fill="#CCCCCC" stroke="#CCCCCC" stroke-width="0.7"/>
</svg>
