<svg width="21" height="22" viewBox="0 0 21 22" fill="none" xmlns="http://www.w3.org/2000/svg">
<path d="M17.0934 3.93002C15.4526 2.27852 13.2871 1.25124 10.9701 1.02526C8.65304 0.799293 6.32978 1.3888 4.40082 2.69215C2.47186 3.99551 1.05807 5.93103 0.403198 8.16503C-0.251674 10.399 -0.106591 12.7915 0.813434 14.93C0.909324 15.1288 0.940787 15.3525 0.903434 15.57L0.0234336 19.8C-0.0104702 19.9622 -0.00354699 20.1303 0.0435812 20.2891C0.0907093 20.4479 0.176565 20.5926 0.293434 20.71C0.389238 20.8051 0.503308 20.8799 0.628768 20.9297C0.754228 20.9795 0.88848 21.0035 1.02343 21H1.22343L5.50343 20.14C5.72096 20.1139 5.94155 20.1449 6.14343 20.23C8.28193 21.15 10.6744 21.2951 12.9084 20.6403C15.1424 19.9854 17.0779 18.5716 18.3813 16.6426C19.6847 14.7137 20.2742 12.3904 20.0482 10.0734C19.8222 7.75638 18.7949 5.59081 17.1434 3.95002L17.0934 3.93002ZM6.02343 12C5.82565 12 5.63231 11.9414 5.46786 11.8315C5.30341 11.7216 5.17524 11.5654 5.09955 11.3827C5.02387 11.2 5.00406 10.9989 5.04265 10.8049C5.08123 10.611 5.17647 10.4328 5.31633 10.2929C5.45618 10.1531 5.63436 10.0578 5.82834 10.0192C6.02232 9.98065 6.22339 10.0005 6.40612 10.0761C6.58884 10.1518 6.74502 10.28 6.8549 10.4445C6.96478 10.6089 7.02343 10.8022 7.02343 11C7.02343 11.2652 6.91808 11.5196 6.73054 11.7071C6.543 11.8947 6.28865 12 6.02343 12ZM10.0234 12C9.82565 12 9.63231 11.9414 9.46786 11.8315C9.30341 11.7216 9.17524 11.5654 9.09955 11.3827C9.02387 11.2 9.00406 10.9989 9.04265 10.8049C9.08123 10.611 9.17647 10.4328 9.31633 10.2929C9.45618 10.1531 9.63436 10.0578 9.82834 10.0192C10.0223 9.98065 10.2234 10.0005 10.4061 10.0761C10.5888 10.1518 10.745 10.28 10.8549 10.4445C10.9648 10.6089 11.0234 10.8022 11.0234 11C11.0234 11.2652 10.9181 11.5196 10.7305 11.7071C10.543 11.8947 10.2887 12 10.0234 12ZM14.0234 12C13.8257 12 13.6323 11.9414 13.4679 11.8315C13.3034 11.7216 13.1752 11.5654 13.0996 11.3827C13.0239 11.2 13.0041 10.9989 13.0426 10.8049C13.0812 10.611 13.1765 10.4328 13.3163 10.2929C13.4562 10.1531 13.6344 10.0578 13.8283 10.0192C14.0223 9.98065 14.2234 10.0005 14.4061 10.0761C14.5888 10.1518 14.745 10.28 14.8549 10.4445C14.9648 10.6089 15.0234 10.8022 15.0234 11C15.0234 11.2652 14.9181 11.5196 14.7305 11.7071C14.543 11.8947 14.2887 12 14.0234 12Z" fill="#CCCCCC"/>
</svg>
