<svg width="12" height="12" viewBox="0 0 12 12" fill="none" xmlns="http://www.w3.org/2000/svg">
<path d="M7.55041 0.652671C7.34851 0.446069 7.10735 0.281903 6.8411 0.16982C6.57485 0.0577377 6.28888 0 6 0C5.71112 0 5.42515 0.0577377 5.1589 0.16982C4.89265 0.281903 4.65149 0.446069 4.44959 0.652671L3.98305 1.13119L3.31548 1.12294C3.02651 1.11952 2.73978 1.17391 2.47214 1.28291C2.2045 1.39191 1.96136 1.55333 1.75702 1.75766C1.55267 1.96199 1.39125 2.20511 1.28224 2.47274C1.17323 2.74036 1.11884 3.02707 1.12226 3.31602L1.12976 3.98355L0.652712 4.45007C0.446097 4.65195 0.28192 4.8931 0.169831 5.15933C0.0577413 5.42556 0 5.71151 0 6.00038C0 6.28924 0.0577413 6.57519 0.169831 6.84142C0.28192 7.10765 0.446097 7.3488 0.652712 7.55068L1.13051 8.0172L1.12226 8.68473C1.11884 8.97368 1.17323 9.26039 1.28224 9.52801C1.39125 9.79564 1.55267 10.0388 1.75702 10.2431C1.96136 10.4474 2.2045 10.6088 2.47214 10.7178C2.73978 10.8268 3.02651 10.8812 3.31548 10.8778L3.98305 10.8703L4.44959 11.3473C4.65149 11.5539 4.89265 11.7181 5.1589 11.8302C5.42515 11.9423 5.71112 12 6 12C6.28888 12 6.57485 11.9423 6.8411 11.8302C7.10735 11.7181 7.34851 11.5539 7.55041 11.3473L8.01695 10.8696L8.68452 10.8778C8.97349 10.8812 9.26022 10.8268 9.52786 10.7178C9.7955 10.6088 10.0386 10.4474 10.243 10.2431C10.4473 10.0388 10.6087 9.79564 10.7178 9.52801C10.8268 9.26039 10.8812 8.97368 10.8777 8.68473L10.8702 8.0172L11.3473 7.55068C11.5539 7.3488 11.7181 7.10765 11.8302 6.84142C11.9423 6.57519 12 6.28924 12 6.00038C12 5.71151 11.9423 5.42556 11.8302 5.15933C11.7181 4.8931 11.5539 4.65195 11.3473 4.45007L10.8695 3.98355L10.8777 3.31602C10.8812 3.02707 10.8268 2.74036 10.7178 2.47274C10.6087 2.20511 10.4473 1.96199 10.243 1.75766C10.0386 1.55333 9.7955 1.39191 9.52786 1.28291C9.26022 1.17391 8.97349 1.11952 8.68452 1.12294L8.01695 1.13044L7.55041 0.652671ZM7.76568 5.14084L5.51545 7.39093C5.48061 7.42585 5.43923 7.45356 5.39366 7.47247C5.3481 7.49137 5.29925 7.5011 5.24992 7.5011C5.20059 7.5011 5.15175 7.49137 5.10618 7.47247C5.06062 7.45356 5.01924 7.42585 4.9844 7.39093L3.85928 6.26589C3.82441 6.23102 3.79676 6.18962 3.77788 6.14407C3.75901 6.09851 3.7493 6.04969 3.7493 6.00038C3.7493 5.95107 3.75901 5.90224 3.77788 5.85668C3.79676 5.81113 3.82441 5.76973 3.85928 5.73486C3.89415 5.7 3.93555 5.67234 3.98111 5.65347C4.02667 5.6346 4.0755 5.62489 4.12481 5.62489C4.17412 5.62489 4.22295 5.6346 4.26851 5.65347C4.31407 5.67234 4.35547 5.7 4.39034 5.73486L5.24992 6.59515L7.23462 4.60982C7.30505 4.5394 7.40056 4.49984 7.50015 4.49984C7.59974 4.49984 7.69526 4.5394 7.76568 4.60982C7.8361 4.68024 7.87566 4.77575 7.87566 4.87533C7.87566 4.97492 7.8361 5.07042 7.76568 5.14084Z" fill="#FB7268"/>
</svg>
