<svg width="12" height="12" viewBox="0 0 12 12" fill="none" xmlns="http://www.w3.org/2000/svg">
<path d="M11.7359 2.30592C11.5667 2.11004 11.3373 2 11.098 2C10.8588 2 10.6294 2.11004 10.4602 2.30592L5.99455 7.47795L1.52889 2.30592C1.35874 2.11559 1.13086 2.01027 0.894314 2.01266C0.657772 2.01504 0.4315 2.12492 0.264234 2.31865C0.0969667 2.51237 0.00208949 2.77443 3.43198e-05 3.04839C-0.00202181 3.32235 0.0889101 3.58628 0.253245 3.78334L5.35673 9.69408C5.52591 9.88996 5.75533 10 5.99455 10C6.23377 10 6.4632 9.88996 6.63238 9.69408L11.7359 3.78334C11.905 3.5874 12 3.32169 12 3.04463C12 2.76757 11.905 2.50186 11.7359 2.30592Z" fill="#6B6B6B"/>
</svg>
