<svg width="24" height="24" viewBox="0 0 24 24" fill="none" xmlns="http://www.w3.org/2000/svg">
<path d="M17.6286 11.2954V11.5545L17.7804 11.7644L19.9661 14.7854L20.0155 14.8536L20.0779 14.91C20.1378 14.9641 20.2 15.0807 20.2 15.246C20.2 15.6595 19.7363 16.1889 19.0714 16.1889H4.92857H4.88353L4.83877 16.194C4.25674 16.2597 3.8 15.7868 3.8 15.3622C3.8 15.1969 3.86223 15.0803 3.92211 15.0262L3.98454 14.9698L4.03386 14.9016L6.21958 11.8806L6.37143 11.6707V11.4116V7.80965C6.37143 5.07234 8.76371 2.8 12 2.8C15.2363 2.8 17.6286 5.07234 17.6286 7.80965V11.2954Z" stroke="black" stroke-width="1.6"/>
<circle cx="12" cy="20" r="2" fill="black"/>
</svg>
